<svg width="58" height="40" viewBox="0 0 58 40" fill="none" xmlns="http://www.w3.org/2000/svg">
<g filter="url(#filter0_d)">
<path fill-rule="evenodd" clip-rule="evenodd" d="M52.75 21.2762V24.0227L52.7496 24.0228C53.3199 24.1388 53.7496 24.6394 53.7496 25.2347V26.2223C53.7496 26.8215 53.3199 27.3201 52.7496 27.4361V27.4612H46.1851C45.8218 29.7013 43.8628 31.4196 41.4995 31.4196C39.1362 31.4196 37.1773 29.7013 36.8159 27.4612H19.4349C19.0716 29.7013 17.1127 31.4196 14.7494 31.4196C12.3861 31.4196 10.4252 29.6994 10.0638 27.4612H6.24939L5.50134 27.4632C4.80994 27.4632 4.24939 26.9065 4.24939 26.2243V25.2366C4.24939 24.5524 4.81189 23.9977 5.50134 23.9977H6.24939V12.8669C6.24939 9.45546 9.05414 6.67998 12.5014 6.67998L18.2709 6.67611V4.70274C12.1854 4.12873 7.02894 3.05602 5.46839 1.51173C5.23597 1.28368 5.18128 0.931895 5.33362 0.643911C5.48597 0.357857 5.8063 0.199371 6.13052 0.257355C11.107 1.13869 18.8455 1.25659 25.7555 1.25659C27.2243 1.25659 28.6677 1.25272 30.0544 1.24692C30.407 1.24586 30.7559 1.24466 31.1008 1.24347L31.1009 1.24347L31.101 1.24347L31.1011 1.24347L31.1014 1.24347L31.1017 1.24347L31.1018 1.24347C32.0154 1.24031 32.9006 1.23726 33.7497 1.23726L40.1872 1.23919H40.1891C44.5466 1.23919 47.2302 1.2102 50.7106 1.04205C51.0544 1.02849 51.3727 1.24884 51.4684 1.57934C51.5641 1.90986 51.4176 2.26357 51.1149 2.43172C50.613 2.71004 49.988 2.96902 49.2477 3.20869V4.71048C49.2477 5.37924 48.8883 5.95712 48.2848 6.25864C48.029 6.3862 47.7594 6.44998 47.4919 6.44998C47.1286 6.44998 46.7673 6.33401 46.4548 6.10401L44.0349 4.32781C40.9529 4.77236 37.1366 5.05455 32.7499 5.15505V6.68193L37.9979 6.68C41.3419 6.68 44.4258 7.78749 46.9024 9.64875L47.1074 9.80723C49.1797 11.4209 50.8047 13.5722 51.7676 16.048L51.7735 16.0596L51.7871 16.0925C51.8007 16.1308 51.8154 16.1679 51.83 16.2048L51.8301 16.205L51.8301 16.2051L51.8302 16.2052L51.8302 16.2053L51.8303 16.2054C51.8429 16.2373 51.8555 16.2691 51.8672 16.3012L52.166 17.0686H52.1231C52.5293 18.4022 52.75 19.815 52.75 21.2762ZM39.0002 15.586H49.9317H49.9319C49.0921 13.8717 47.8811 12.3505 46.3792 11.1329H39.0002C38.8654 11.1329 38.7502 11.2469 38.7502 11.3803V15.3386C38.7502 15.472 38.8654 15.586 39.0002 15.586ZM47.75 4.71049C47.75 4.81293 47.7051 4.88637 47.6113 4.93276C47.5176 4.97915 47.4336 4.97142 47.3496 4.90957L46.0918 3.98762C46.6817 3.87552 47.2344 3.75569 47.75 3.63006L47.75 4.71049ZM29.0908 2.73613L29.0906 2.73613C28.0042 2.73947 26.8892 2.7429 25.758 2.7429L25.7585 2.74286C21.319 2.74286 16.5376 2.69261 12.3365 2.42395C16.3715 3.17777 22.1745 3.7112 29.0005 3.7112C35.2735 3.7112 40.7601 3.34788 44.7425 2.70811C43.385 2.72357 41.9182 2.72937 40.1917 2.72937H40.1897L33.7502 2.72357C32.5823 2.72357 31.3459 2.72744 30.0608 2.73324L29.0908 2.73613ZM19.7715 4.83612C22.7813 5.07385 25.957 5.19561 29 5.19561C29.7637 5.19561 30.5137 5.18982 31.25 5.18015V6.67997H19.7715V4.83612ZM11.5 26.7193C11.5 28.4935 12.9571 29.9354 14.75 29.9354C16.543 29.9354 18 28.4935 18 26.7193C18 24.945 16.543 23.5031 14.75 23.5031C12.9571 23.5031 11.5 24.945 11.5 26.7193ZM41.5 29.9354C39.7071 29.9354 38.25 28.4935 38.25 26.7193C38.25 24.945 39.7071 23.5031 41.5 23.5031C43.293 23.5031 44.75 24.945 44.75 26.7193C44.75 28.4935 43.293 29.9354 41.5 29.9354ZM41.5 22.0187C43.8633 22.0187 45.8242 23.737 46.1856 25.9771H52.25V25.4823H47.75V23.9979H51.25V21.2785C51.25 19.8057 51 18.3929 50.5469 17.0708H38.9999C38.035 17.0708 37.2499 16.2939 37.2499 15.3391V11.3807C37.2499 10.4259 38.035 9.64896 38.9999 9.64896H44.1114C42.2811 8.70381 40.201 8.16458 37.9979 8.16458H12.5019C9.88077 8.16458 7.74992 10.2752 7.74992 12.867V15.5865H15.2849V17.0708H7.74992V23.9979H8.74992V25.4823H5.74992V25.9771H10.0644C10.4277 23.737 12.3866 22.0187 14.7499 22.0187C17.1132 22.0187 19.0741 23.737 19.4355 25.9771H36.8145C37.1778 23.737 39.1367 22.0187 41.5 22.0187Z" fill="white"/>
<path d="M52.75 24.0227L52.7918 24.1668L52.9 24.1354V24.0227H52.75ZM52.7496 24.0228L52.7078 23.8788L52.7197 24.1698L52.7496 24.0228ZM52.7496 27.4361L52.7197 27.2891L52.5996 27.3135V27.4361H52.7496ZM52.7496 27.4612V27.6112H52.8996V27.4612H52.7496ZM46.1851 27.4612V27.3112H46.0575L46.037 27.4372L46.1851 27.4612ZM36.8159 27.4612L36.964 27.4373L36.9437 27.3112H36.8159V27.4612ZM19.4349 27.4612V27.3112H19.3073L19.2869 27.4372L19.4349 27.4612ZM10.0638 27.4612L10.2119 27.4373L10.1916 27.3112H10.0638V27.4612ZM6.24939 27.4612L6.24939 27.3112L6.249 27.3112L6.24939 27.4612ZM5.50134 27.4632L5.50134 27.6132L5.50173 27.6132L5.50134 27.4632ZM6.24939 23.9977V24.1477H6.39939V23.9977H6.24939ZM12.5014 6.67998L12.5014 6.82998L12.5015 6.82998L12.5014 6.67998ZM18.2709 6.67611L18.271 6.82611L18.4209 6.82601V6.67611H18.2709ZM18.2709 4.70274H18.4209V4.56622L18.285 4.5534L18.2709 4.70274ZM5.46839 1.51173L5.5739 1.40511L5.57344 1.40466L5.46839 1.51173ZM5.33362 0.643911L5.20123 0.573399L5.20103 0.57377L5.33362 0.643911ZM6.13052 0.257355L6.10412 0.405013L6.10437 0.405057L6.13052 0.257355ZM30.0544 1.24692L30.0539 1.09692L30.0537 1.09692L30.0544 1.24692ZM31.1008 1.24347L31.1013 1.39347L31.1014 1.39347L31.1008 1.24347ZM31.1011 1.24347L31.1006 1.09347L31.1005 1.09347L31.1011 1.24347ZM31.1014 1.24347L31.101 1.09347L31.1009 1.09347L31.1014 1.24347ZM31.1017 1.24347L31.1022 1.39347L31.1023 1.39347L31.1017 1.24347ZM31.1018 1.24347L31.1012 1.09347L31.1012 1.09347L31.1018 1.24347ZM33.7497 1.23726L33.7497 1.08726H33.7497V1.23726ZM40.1872 1.23919L40.1871 1.38919H40.1872V1.23919ZM50.7106 1.04205L50.7047 0.892158L50.7034 0.892222L50.7106 1.04205ZM51.4684 1.57934L51.6125 1.53762L51.6125 1.53762L51.4684 1.57934ZM51.1149 2.43172L51.1877 2.5629L51.1877 2.56285L51.1149 2.43172ZM49.2477 3.20869L49.2015 3.06598L49.0977 3.09959V3.20869H49.2477ZM48.2848 6.25864L48.3517 6.39288L48.3519 6.39282L48.2848 6.25864ZM46.4548 6.10401L46.5437 5.98321L46.5435 5.98309L46.4548 6.10401ZM44.0349 4.32781L44.1236 4.20689L44.0742 4.17059L44.0134 4.17935L44.0349 4.32781ZM32.7499 5.15505L32.7464 5.00509L32.5999 5.00845V5.15505H32.7499ZM32.7499 6.68193H32.5999V6.83199L32.7499 6.83193L32.7499 6.68193ZM37.9979 6.68L37.9979 6.53L37.9978 6.53L37.9979 6.68ZM46.9024 9.64875L46.9941 9.53005L46.9925 9.52884L46.9024 9.64875ZM47.1074 9.80723L47.1996 9.68888L47.1992 9.68855L47.1074 9.80723ZM51.7676 16.048L51.6278 16.1024L51.6304 16.1092L51.6337 16.1157L51.7676 16.048ZM51.7735 16.0596L51.9123 16.0019L51.9073 15.992L51.7735 16.0596ZM51.7871 16.0925L51.9287 16.0423L51.9256 16.0349L51.7871 16.0925ZM51.83 16.2048L51.6906 16.2601L51.6908 16.2605L51.83 16.2048ZM51.8301 16.205L51.97 16.1508L51.9694 16.1493L51.8301 16.205ZM51.8301 16.2051L51.6902 16.2592L51.6909 16.2608L51.8301 16.2051ZM51.8302 16.2052L51.9701 16.1511L51.9695 16.1495L51.8302 16.2052ZM51.8302 16.2053L51.6903 16.2595L51.6909 16.261L51.8302 16.2053ZM51.8303 16.2054L51.9697 16.1502L51.9695 16.1497L51.8303 16.2054ZM51.8672 16.3012L51.7263 16.3527L51.7274 16.3557L51.8672 16.3012ZM52.166 17.0686V17.2186H52.3854L52.3058 17.0141L52.166 17.0686ZM52.1231 17.0686V16.9186H51.9206L51.9796 17.1123L52.1231 17.0686ZM49.9319 15.586V15.736H50.1724L50.0666 15.52L49.9319 15.586ZM46.3792 11.1329L46.4736 11.0164L46.4323 10.9829H46.3792V11.1329ZM47.6113 4.93276L47.5448 4.79832L47.5448 4.79832L47.6113 4.93276ZM47.75 4.71049L47.6 4.71049V4.71049H47.75ZM47.3496 4.90957L47.4386 4.78879L47.4383 4.78859L47.3496 4.90957ZM46.0918 3.98762L46.0638 3.84026L45.7249 3.90467L46.0032 4.1086L46.0918 3.98762ZM47.75 3.63006L47.9 3.63006L47.9 3.43912L47.7145 3.48432L47.75 3.63006ZM29.0906 2.73613L29.0911 2.88613L29.0912 2.88613L29.0906 2.73613ZM29.0908 2.73613L29.0904 2.58613L29.0902 2.58613L29.0908 2.73613ZM25.758 2.7429L25.7444 2.59352L25.758 2.8929V2.7429ZM25.7585 2.74286L25.772 2.89225L25.7585 2.59286V2.74286ZM12.3365 2.42395L12.346 2.27426L12.3089 2.5714L12.3365 2.42395ZM44.7425 2.70811L44.7663 2.85621L44.7408 2.55812L44.7425 2.70811ZM40.1897 2.72937L40.1896 2.87937H40.1897V2.72937ZM33.7502 2.72357L33.7504 2.57357H33.7502V2.72357ZM30.0608 2.73324L30.0612 2.88324L30.0614 2.88324L30.0608 2.73324ZM19.7715 4.83612L19.7833 4.68658L19.6215 4.6738V4.83612H19.7715ZM31.25 5.18015H31.4V5.02817L31.248 5.03017L31.25 5.18015ZM31.25 6.67997V6.82997H31.4V6.67997H31.25ZM19.7715 6.67997H19.6215V6.82997H19.7715V6.67997ZM46.1856 25.9771L46.0375 26.001L46.0578 26.1271H46.1856V25.9771ZM52.25 25.9771V26.1271H52.4V25.9771H52.25ZM52.25 25.4823H52.4V25.3323H52.25V25.4823ZM47.75 25.4823H47.6V25.6323H47.75V25.4823ZM47.75 23.9979V23.8479H47.6V23.9979H47.75ZM51.25 23.9979V24.1479H51.4V23.9979H51.25ZM50.5469 17.0708L50.6888 17.0222L50.654 16.9208H50.5469V17.0708ZM44.1114 9.64896V9.79896L44.1802 9.51568L44.1114 9.64896ZM7.74992 15.5865H7.59992V15.7365H7.74992V15.5865ZM15.2849 15.5865H15.4349V15.4365H15.2849V15.5865ZM15.2849 17.0708V17.2208H15.4349V17.0708H15.2849ZM7.74992 17.0708V16.9208H7.59992V17.0708H7.74992ZM7.74992 23.9979H7.59992V24.1479H7.74992V23.9979ZM8.74992 23.9979H8.89992V23.8479H8.74992V23.9979ZM8.74992 25.4823V25.6323H8.89992V25.4823H8.74992ZM5.74992 25.4823V25.3323H5.59992V25.4823H5.74992ZM5.74992 25.9771H5.59992V26.1271H5.74992V25.9771ZM10.0644 25.9771V26.1271H10.192L10.2124 26.0011L10.0644 25.9771ZM19.4355 25.9771L19.2874 26.001L19.3077 26.1271H19.4355V25.9771ZM36.8145 25.9771V26.1271H36.9421L36.9625 26.0011L36.8145 25.9771ZM52.9 24.0227V21.2762H52.6V24.0227H52.9ZM52.7914 24.1669L52.7918 24.1668L52.7082 23.8786L52.7078 23.8788L52.7914 24.1669ZM53.8996 25.2347C53.8996 24.5654 53.417 24.0055 52.7795 23.8758L52.7197 24.1698C53.2228 24.2721 53.5996 24.7134 53.5996 25.2347H53.8996ZM53.8996 26.2223V25.2347H53.5996V26.2223H53.8996ZM52.7795 27.5831C53.417 27.4535 53.8996 26.8955 53.8996 26.2223H53.5996C53.5996 26.7474 53.2228 27.1868 52.7197 27.2891L52.7795 27.5831ZM52.8996 27.4612V27.4361H52.5996V27.4612H52.8996ZM46.1851 27.6112H52.7496V27.3112H46.1851V27.6112ZM41.4995 31.5696C43.9369 31.5696 45.9582 29.7974 46.3332 27.4852L46.037 27.4372C45.6854 29.6052 43.7887 31.2696 41.4995 31.2696V31.5696ZM36.6679 27.4851C37.0408 29.7974 39.0622 31.5696 41.4995 31.5696V31.2696C39.2103 31.2696 37.3137 29.6052 36.964 27.4373L36.6679 27.4851ZM19.4349 27.6112H36.8159V27.3112H19.4349V27.6112ZM14.7494 31.5696C17.1868 31.5696 19.208 29.7974 19.583 27.4852L19.2869 27.4372C18.9353 29.6052 17.0386 31.2696 14.7494 31.2696V31.5696ZM9.91576 27.4851C10.2888 29.7955 12.312 31.5696 14.7494 31.5696V31.2696C12.4601 31.2696 10.5616 29.6032 10.2119 27.4373L9.91576 27.4851ZM6.24939 27.6112H10.0638V27.3112H6.24939V27.6112ZM5.50173 27.6132L6.24978 27.6112L6.249 27.3112L5.50095 27.3132L5.50173 27.6132ZM4.09939 26.2243C4.09939 26.9907 4.72843 27.6132 5.50134 27.6132V27.3132C4.89145 27.3132 4.39939 26.8224 4.39939 26.2243H4.09939ZM4.09939 25.2366V26.2243H4.39939V25.2366H4.09939ZM5.50134 23.8477C4.73068 23.8477 4.09939 24.4679 4.09939 25.2366H4.39939C4.39939 24.6369 4.89309 24.1477 5.50134 24.1477V23.8477ZM6.24939 23.8477H5.50134V24.1477H6.24939V23.8477ZM6.09939 12.8669V23.9977H6.39939V12.8669H6.09939ZM12.5014 6.52998C8.97278 6.52998 6.09939 9.37114 6.09939 12.8669H6.39939C6.39939 9.53978 9.1355 6.82998 12.5014 6.82998V6.52998ZM18.2708 6.52611L12.5013 6.52998L12.5015 6.82998L18.271 6.82611L18.2708 6.52611ZM18.1209 4.70274V6.67611H18.4209V4.70274H18.1209ZM5.36288 1.61835C5.77347 2.02466 6.40938 2.39027 7.21453 2.71992C8.02208 3.05055 9.01115 3.34947 10.1381 3.61703C12.3922 4.15219 15.2102 4.56471 18.2568 4.85207L18.285 4.5534C15.2461 4.26676 12.4431 3.85592 10.2074 3.32515C9.08954 3.05974 8.11656 2.76506 7.3282 2.44229C6.53744 2.11853 5.94358 1.77094 5.5739 1.40511L5.36288 1.61835ZM5.20103 0.57377C5.01766 0.920402 5.08354 1.34426 5.36334 1.61879L5.57344 1.40466C5.3884 1.22309 5.3449 0.943388 5.46622 0.714052L5.20103 0.57377ZM6.15693 0.109698C5.76824 0.0401837 5.38398 0.230266 5.20123 0.573399L5.46602 0.714423C5.58797 0.485448 5.84437 0.358558 6.10412 0.405012L6.15693 0.109698ZM25.7555 1.10659C18.8424 1.10659 11.1178 0.988255 6.15668 0.109654L6.10437 0.405057C11.0963 1.28912 18.8487 1.40659 25.7555 1.40659V1.10659ZM30.0537 1.09692C28.6672 1.10272 27.224 1.10659 25.7555 1.10659V1.40659C27.2245 1.40659 28.6681 1.40272 30.055 1.39692L30.0537 1.09692ZM31.1003 1.09347C30.7554 1.09466 30.4065 1.09587 30.0539 1.09692L30.0548 1.39692C30.4075 1.39586 30.7564 1.39466 31.1013 1.39347L31.1003 1.09347ZM31.1003 1.09347L31.1003 1.09347L31.1014 1.39347L31.1015 1.39347L31.1003 1.09347ZM31.1004 1.09347L31.1003 1.09347L31.1015 1.39347L31.1015 1.39347L31.1004 1.09347ZM31.1005 1.09347L31.1004 1.09347L31.1015 1.39347L31.1016 1.39347L31.1005 1.09347ZM31.1009 1.09347L31.1006 1.09347L31.1016 1.39347L31.102 1.39347L31.1009 1.09347ZM31.1012 1.09347L31.101 1.09347L31.1019 1.39347L31.1022 1.39347L31.1012 1.09347ZM31.1012 1.09347L31.1011 1.09347L31.1023 1.39347L31.1024 1.39347L31.1012 1.09347ZM33.7497 1.08726C32.9003 1.08726 32.0149 1.09032 31.1012 1.09347L31.1023 1.39347C32.016 1.39031 32.9009 1.38726 33.7497 1.38726V1.08726ZM40.1872 1.08919L33.7497 1.08726L33.7496 1.38726L40.1871 1.38919L40.1872 1.08919ZM40.1891 1.08919H40.1872V1.38919H40.1891V1.08919ZM50.7034 0.892222C47.2265 1.0602 44.5458 1.08919 40.1891 1.08919V1.38919C44.5474 1.38919 47.2338 1.3602 50.7179 1.19187L50.7034 0.892222ZM51.6125 1.53762C51.4968 1.13812 51.1145 0.876003 50.7047 0.892164L50.7165 1.19193C50.9943 1.18098 51.2486 1.35955 51.3243 1.62106L51.6125 1.53762ZM51.1877 2.56285C51.5512 2.36099 51.7278 1.93582 51.6125 1.53762L51.3243 1.62106C51.4005 1.88391 51.2841 2.16615 51.0421 2.30059L51.1877 2.56285ZM49.2939 3.3514C50.0401 3.10981 50.6747 2.84732 51.1877 2.5629L51.0422 2.30054C50.5512 2.57276 49.9358 2.82824 49.2015 3.06598L49.2939 3.3514ZM49.3977 4.71048V3.20869H49.0977V4.71048H49.3977ZM48.3519 6.39282C49.0056 6.06619 49.3977 5.4367 49.3977 4.71048H49.0977C49.0977 5.32178 48.771 5.84805 48.2178 6.12445L48.3519 6.39282ZM47.4919 6.59998C47.7836 6.59998 48.0759 6.53039 48.3517 6.39288L48.2179 6.1244C47.982 6.242 47.7353 6.29998 47.4919 6.29998V6.59998ZM46.3658 6.22482C46.7038 6.47356 47.0962 6.59998 47.4919 6.59998V6.29998C47.161 6.29998 46.8307 6.19447 46.5437 5.98321L46.3658 6.22482ZM43.9461 4.44873L46.366 6.22494L46.5435 5.98309L44.1236 4.20689L43.9461 4.44873ZM32.7533 5.30501C37.1439 5.20442 40.9665 4.92194 44.0563 4.47627L44.0134 4.17935C40.9392 4.62278 37.1292 4.90468 32.7464 5.00509L32.7533 5.30501ZM32.8999 6.68193V5.15505H32.5999V6.68193H32.8999ZM37.9978 6.53L32.7498 6.53193L32.7499 6.83193L37.9979 6.83L37.9978 6.53ZM46.9925 9.52884C44.4909 7.64875 41.3755 6.53 37.9979 6.53V6.83C41.3082 6.83 44.3607 7.92623 46.8122 9.76866L46.9925 9.52884ZM47.1992 9.68855L46.9941 9.53006L46.8106 9.76744L47.0157 9.92592L47.1992 9.68855ZM51.9074 15.9937C50.9345 13.492 49.2928 11.3189 47.1996 9.68889L47.0153 9.92558C49.0666 11.523 50.6749 13.6523 51.6278 16.1024L51.9074 15.9937ZM51.9073 15.992L51.9015 15.9804L51.6337 16.1157L51.6396 16.1273L51.9073 15.992ZM51.9256 16.0349L51.9119 16.002L51.635 16.1173L51.6486 16.1501L51.9256 16.0349ZM51.9695 16.1496C51.9547 16.1123 51.941 16.0776 51.9285 16.0423L51.6458 16.1427C51.6604 16.1839 51.6761 16.2235 51.6906 16.2601L51.9695 16.1496ZM51.9694 16.1493L51.9693 16.1491L51.6908 16.2605L51.6908 16.2607L51.9694 16.1493ZM51.97 16.1509L51.97 16.1508L51.6902 16.2591L51.6902 16.2592L51.97 16.1509ZM51.9695 16.1495L51.9694 16.1494L51.6909 16.2608L51.6909 16.2609L51.9695 16.1495ZM51.9701 16.1512L51.9701 16.1511L51.6903 16.2594L51.6903 16.2594L51.9701 16.1512ZM51.9695 16.1497L51.9695 16.1496L51.6909 16.261L51.691 16.2612L51.9695 16.1497ZM52.0081 16.2498C51.9956 16.2154 51.9822 16.1818 51.9697 16.1502L51.6908 16.2607C51.7036 16.2929 51.7154 16.3227 51.7263 16.3527L52.0081 16.2498ZM52.3058 17.0141L52.007 16.2468L51.7274 16.3557L52.0263 17.123L52.3058 17.0141ZM52.1231 17.2186H52.166V16.9186H52.1231V17.2186ZM52.9 21.2762C52.9 19.7999 52.677 18.3723 52.2666 17.0248L51.9796 17.1123C52.3816 18.4321 52.6 19.8302 52.6 21.2762H52.9ZM49.9317 15.436H39.0002V15.736H49.9317V15.436ZM49.9319 15.436H49.9317V15.736H49.9319V15.436ZM46.2847 11.2494C47.7698 12.4534 48.967 13.9573 49.7972 15.652L50.0666 15.52C49.2171 13.786 47.9924 12.2476 46.4736 11.0164L46.2847 11.2494ZM39.0002 11.2829H46.3792V10.9829H39.0002V11.2829ZM38.9002 11.3803C38.9002 11.3312 38.9468 11.2829 39.0002 11.2829V10.9829C38.784 10.9829 38.6002 11.1626 38.6002 11.3803H38.9002ZM38.9002 15.3386V11.3803H38.6002V15.3386H38.9002ZM39.0002 15.436C38.9468 15.436 38.9002 15.3877 38.9002 15.3386H38.6002C38.6002 15.5563 38.784 15.736 39.0002 15.736V15.436ZM47.6779 5.0672C47.7449 5.03406 47.8029 4.98678 47.8433 4.92176C47.8836 4.85675 47.9 4.78414 47.9 4.71049H47.6C47.6 4.73928 47.5939 4.75462 47.5884 4.76353C47.5829 4.77244 47.5716 4.78508 47.5448 4.79832L47.6779 5.0672ZM47.2607 5.03035C47.3198 5.07391 47.3874 5.10435 47.4635 5.11116C47.5396 5.11797 47.6116 5.09997 47.6779 5.0672L47.5448 4.79832C47.5173 4.81194 47.5005 4.81327 47.4902 4.81235C47.4799 4.81142 47.4634 4.80708 47.4386 4.78879L47.2607 5.03035ZM46.0032 4.1086L47.261 5.03055L47.4383 4.78859L46.1805 3.86664L46.0032 4.1086ZM47.7145 3.48432C47.2015 3.60931 46.6513 3.72861 46.0638 3.84026L46.1198 4.13499C46.7121 4.02244 47.2673 3.90207 47.7855 3.77579L47.7145 3.48432ZM47.9 4.71049L47.9 3.63006L47.6 3.63006L47.6 4.71049L47.9 4.71049ZM29.0912 2.88613L29.0914 2.88613L29.0902 2.58613L29.09 2.58613L29.0912 2.88613ZM25.758 2.8929C26.8895 2.8929 28.0047 2.88947 29.0911 2.88613L29.0902 2.58613C28.0037 2.58947 26.8889 2.5929 25.758 2.5929V2.8929ZM25.7449 2.59348L25.7444 2.59352L25.7716 2.89229L25.772 2.89225L25.7449 2.59348ZM12.3269 2.57365C16.5331 2.84263 21.3185 2.89286 25.7585 2.89286V2.59286C21.3194 2.59286 16.5421 2.54259 12.346 2.27426L12.3269 2.57365ZM29.0005 3.5612C22.1813 3.5612 16.3878 3.02823 12.364 2.2765L12.3089 2.5714C16.3551 3.32731 22.1677 3.8612 29.0005 3.8612V3.5612ZM44.7187 2.56001C40.7469 3.19807 35.2689 3.5612 29.0005 3.5612V3.8612C35.2781 3.8612 40.7732 3.49768 44.7663 2.85621L44.7187 2.56001ZM40.1917 2.87937C41.9185 2.87937 43.3859 2.87357 44.7442 2.8581L44.7408 2.55812C43.3841 2.57358 41.9179 2.57937 40.1917 2.57937V2.87937ZM40.1897 2.87937H40.1917V2.57937H40.1897V2.87937ZM33.7501 2.87357L40.1896 2.87937L40.1899 2.57937L33.7504 2.57357L33.7501 2.87357ZM30.0614 2.88324C31.3465 2.87744 32.5826 2.87357 33.7502 2.87357V2.57357C32.582 2.57357 31.3454 2.57744 30.0601 2.58324L30.0614 2.88324ZM29.0913 2.88613L30.0612 2.88324L30.0603 2.58324L29.0904 2.58613L29.0913 2.88613ZM29 5.04561C25.9608 5.04561 22.789 4.924 19.7833 4.68658L19.7597 4.98565C22.7735 5.22371 25.9532 5.34561 29 5.34561V5.04561ZM31.248 5.03017C30.5122 5.03982 29.7629 5.04561 29 5.04561V5.34561C29.7644 5.34561 30.5151 5.33981 31.252 5.33014L31.248 5.03017ZM31.4 6.67997V5.18015H31.1V6.67997H31.4ZM19.7715 6.82997H31.25V6.52997H19.7715V6.82997ZM19.6215 4.83612V6.67997H19.9215V4.83612H19.6215ZM14.75 29.7854C13.0384 29.7854 11.65 28.4092 11.65 26.7193H11.35C11.35 28.5779 12.8757 30.0854 14.75 30.0854V29.7854ZM17.85 26.7193C17.85 28.4092 16.4616 29.7854 14.75 29.7854V30.0854C16.6243 30.0854 18.15 28.5779 18.15 26.7193H17.85ZM14.75 23.6531C16.4616 23.6531 17.85 25.0293 17.85 26.7193H18.15C18.15 24.8607 16.6243 23.3531 14.75 23.3531V23.6531ZM11.65 26.7193C11.65 25.0293 13.0384 23.6531 14.75 23.6531V23.3531C12.8757 23.3531 11.35 24.8607 11.35 26.7193H11.65ZM38.1 26.7193C38.1 28.5779 39.6257 30.0854 41.5 30.0854V29.7854C39.7884 29.7854 38.4 28.4092 38.4 26.7193H38.1ZM41.5 23.3531C39.6257 23.3531 38.1 24.8607 38.1 26.7193H38.4C38.4 25.0293 39.7884 23.6531 41.5 23.6531V23.3531ZM44.9 26.7193C44.9 24.8607 43.3743 23.3531 41.5 23.3531V23.6531C43.2116 23.6531 44.6 25.0293 44.6 26.7193H44.9ZM41.5 30.0854C43.3743 30.0854 44.9 28.5779 44.9 26.7193H44.6C44.6 28.4092 43.2116 29.7854 41.5 29.7854V30.0854ZM46.3337 25.9532C45.9607 23.6408 43.9373 21.8687 41.5 21.8687V22.1687C43.7893 22.1687 45.6878 23.8332 46.0375 26.001L46.3337 25.9532ZM52.25 25.8271H46.1856V26.1271H52.25V25.8271ZM52.1 25.4823V25.9771H52.4V25.4823H52.1ZM47.75 25.6323H52.25V25.3323H47.75V25.6323ZM47.6 23.9979V25.4823H47.9V23.9979H47.6ZM51.25 23.8479H47.75V24.1479H51.25V23.8479ZM51.1 21.2785V23.9979H51.4V21.2785H51.1ZM50.405 17.1195C50.8529 18.4264 51.1 19.8228 51.1 21.2785H51.4C51.4 19.7886 51.1471 18.3593 50.6888 17.0222L50.405 17.1195ZM38.9999 17.2208H50.5469V16.9208H38.9999V17.2208ZM37.0999 15.3391C37.0999 16.3782 37.9537 17.2208 38.9999 17.2208V16.9208C38.1164 16.9208 37.3999 16.2095 37.3999 15.3391H37.0999ZM37.0999 11.3807V15.3391H37.3999V11.3807H37.0999ZM38.9999 9.49896C37.9537 9.49896 37.0999 10.3416 37.0999 11.3807H37.3999C37.3999 10.5102 38.1164 9.79896 38.9999 9.79896V9.49896ZM44.1114 9.49896H38.9999V9.79896H44.1114V9.49896ZM37.9979 8.31458C40.1762 8.31458 42.2328 8.84771 44.0425 9.78224L44.1802 9.51568C42.3293 8.5599 40.2257 8.01458 37.9979 8.01458V8.31458ZM12.5019 8.31458H37.9979V8.01458H12.5019V8.31458ZM7.89992 12.867C7.89992 10.3594 9.96216 8.31458 12.5019 8.31458V8.01458C9.79937 8.01458 7.59992 10.1909 7.59992 12.867H7.89992ZM7.89992 15.5865V12.867H7.59992V15.5865H7.89992ZM15.2849 15.4365H7.74992V15.7365H15.2849V15.4365ZM15.4349 17.0708V15.5865H15.1349V17.0708H15.4349ZM7.74992 17.2208H15.2849V16.9208H7.74992V17.2208ZM7.89992 23.9979V17.0708H7.59992V23.9979H7.89992ZM8.74992 23.8479H7.74992V24.1479H8.74992V23.8479ZM8.89992 25.4823V23.9979H8.59992V25.4823H8.89992ZM5.74992 25.6323H8.74992V25.3323H5.74992V25.6323ZM5.89992 25.9771V25.4823H5.59992V25.9771H5.89992ZM10.0644 25.8271H5.74992V26.1271H10.0644V25.8271ZM14.7499 21.8687C12.3125 21.8687 10.2913 23.6409 9.9163 25.9531L10.2124 26.0011C10.564 23.8331 12.4607 22.1687 14.7499 22.1687V21.8687ZM19.5836 25.9532C19.2106 23.6408 17.1872 21.8687 14.7499 21.8687V22.1687C17.0392 22.1687 18.9377 23.8332 19.2874 26.001L19.5836 25.9532ZM36.8145 25.8271H19.4355V26.1271H36.8145V25.8271ZM41.5 21.8687C39.0626 21.8687 37.0414 23.6409 36.6664 25.9531L36.9625 26.0011C37.3141 23.8331 39.2108 22.1687 41.5 22.1687V21.8687Z" fill="#222532"/>
<path fill-rule="evenodd" clip-rule="evenodd" d="M26.75 11.3803V15.3387C26.75 16.2935 25.9648 17.0704 25 17.0704H20C19.0351 17.0704 18.25 16.2935 18.25 15.3387V11.3803C18.25 10.4255 19.0351 9.64856 20 9.64856H25C25.9648 9.64856 26.75 10.4255 26.75 11.3803ZM19.75 11.3803V15.3387C19.75 15.474 19.8652 15.5861 20 15.5861H25C25.1348 15.5861 25.25 15.472 25.25 15.3387V11.3803C25.25 11.247 25.1348 11.1329 25 11.1329H20C19.8652 11.1329 19.75 11.247 19.75 11.3803Z" fill="white"/>
<path d="M26.9 15.3387V11.3803H26.6V15.3387H26.9ZM25 17.2204C26.0462 17.2204 26.9 16.3778 26.9 15.3387H26.6C26.6 16.2091 25.8835 16.9204 25 16.9204V17.2204ZM20 17.2204H25V16.9204H20V17.2204ZM18.1 15.3387C18.1 16.3778 18.9538 17.2204 20 17.2204V16.9204C19.1165 16.9204 18.4 16.2091 18.4 15.3387H18.1ZM18.1 11.3803V15.3387H18.4V11.3803H18.1ZM20 9.49856C18.9538 9.49856 18.1 10.3412 18.1 11.3803H18.4C18.4 10.5099 19.1165 9.79856 20 9.79856V9.49856ZM25 9.49856H20V9.79856H25V9.49856ZM26.9 11.3803C26.9 10.3412 26.0462 9.49856 25 9.49856V9.79856C25.8835 9.79856 26.6 10.5099 26.6 11.3803H26.9ZM19.9 15.3387V11.3803H19.6V15.3387H19.9ZM20 15.4361C19.9458 15.4361 19.9 15.3889 19.9 15.3387H19.6C19.6 15.559 19.7846 15.7361 20 15.7361V15.4361ZM25 15.4361H20V15.7361H25V15.4361ZM25.1 15.3387C25.1 15.3877 25.0534 15.4361 25 15.4361V15.7361C25.2161 15.7361 25.4 15.5563 25.4 15.3387H25.1ZM25.1 11.3803V15.3387H25.4V11.3803H25.1ZM25 11.2829C25.0534 11.2829 25.1 11.3313 25.1 11.3803H25.4C25.4 11.1626 25.2161 10.9829 25 10.9829V11.2829ZM20 11.2829H25V10.9829H20V11.2829ZM19.9 11.3803C19.9 11.3313 19.9466 11.2829 20 11.2829V10.9829C19.7839 10.9829 19.6 11.1626 19.6 11.3803H19.9Z" fill="#222532"/>
<path fill-rule="evenodd" clip-rule="evenodd" d="M29.5 9.64856H34.5C35.4648 9.64856 36.25 10.4255 36.25 11.3803V15.3387C36.25 16.2935 35.4648 17.0704 34.5 17.0704H29.5C28.5351 17.0704 27.75 16.2935 27.75 15.3387V11.3803C27.75 10.4255 28.5351 9.64856 29.5 9.64856ZM34.5 15.5861C34.6348 15.5861 34.75 15.472 34.75 15.3387V11.3803C34.75 11.247 34.6348 11.1329 34.5 11.1329H29.5C29.3652 11.1329 29.25 11.247 29.25 11.3803V15.3387C29.25 15.472 29.3652 15.5861 29.5 15.5861H34.5Z" fill="white"/>
<path d="M34.5 9.49856H29.5V9.79856H34.5V9.49856ZM36.4 11.3803C36.4 10.3412 35.5462 9.49856 34.5 9.49856V9.79856C35.3835 9.79856 36.1 10.5099 36.1 11.3803H36.4ZM36.4 15.3387V11.3803H36.1V15.3387H36.4ZM34.5 17.2204C35.5462 17.2204 36.4 16.3778 36.4 15.3387H36.1C36.1 16.2091 35.3835 16.9204 34.5 16.9204V17.2204ZM29.5 17.2204H34.5V16.9204H29.5V17.2204ZM27.6 15.3387C27.6 16.3778 28.4538 17.2204 29.5 17.2204V16.9204C28.6165 16.9204 27.9 16.2091 27.9 15.3387H27.6ZM27.6 11.3803V15.3387H27.9V11.3803H27.6ZM29.5 9.49856C28.4538 9.49856 27.6 10.3412 27.6 11.3803H27.9C27.9 10.5099 28.6165 9.79856 29.5 9.79856V9.49856ZM34.6 15.3387C34.6 15.3877 34.5534 15.4361 34.5 15.4361V15.7361C34.7161 15.7361 34.9 15.5563 34.9 15.3387H34.6ZM34.6 11.3803V15.3387H34.9V11.3803H34.6ZM34.5 11.2829C34.5534 11.2829 34.6 11.3313 34.6 11.3803H34.9C34.9 11.1626 34.7161 10.9829 34.5 10.9829V11.2829ZM29.5 11.2829H34.5V10.9829H29.5V11.2829ZM29.4 11.3803C29.4 11.3313 29.4466 11.2829 29.5 11.2829V10.9829C29.2839 10.9829 29.1 11.1626 29.1 11.3803H29.4ZM29.4 15.3387V11.3803H29.1V15.3387H29.4ZM29.5 15.4361C29.4466 15.4361 29.4 15.3877 29.4 15.3387H29.1C29.1 15.5563 29.2839 15.7361 29.5 15.7361V15.4361ZM34.5 15.4361H29.5V15.7361H34.5V15.4361Z" fill="#222532"/>
<path fill-rule="evenodd" clip-rule="evenodd" d="M39.5 26.7188C39.5 25.6268 40.3965 24.7396 41.5 24.7396C42.6035 24.7396 43.5 25.6287 43.5 26.7188C43.5 27.8108 42.6035 28.698 41.5 28.698C40.3965 28.698 39.5 27.8108 39.5 26.7188ZM41 26.7188C41 26.9913 41.2246 27.2136 41.5 27.2136C41.7754 27.2136 42 26.9913 42 26.7188C42 26.4463 41.7754 26.224 41.5 26.224C41.2246 26.224 41 26.4463 41 26.7188Z" fill="white"/>
<path d="M41.5 24.5896C40.3151 24.5896 39.35 25.5425 39.35 26.7188H39.65C39.65 25.7111 40.4779 24.8896 41.5 24.8896V24.5896ZM43.65 26.7188C43.65 25.5445 42.685 24.5896 41.5 24.5896V24.8896C42.522 24.8896 43.35 25.7129 43.35 26.7188H43.65ZM41.5 28.848C42.6849 28.848 43.65 27.8951 43.65 26.7188H43.35C43.35 27.7265 42.5221 28.548 41.5 28.548V28.848ZM39.35 26.7188C39.35 27.8951 40.3151 28.848 41.5 28.848V28.548C40.4779 28.548 39.65 27.7265 39.65 26.7188H39.35ZM41.5 27.0636C41.306 27.0636 41.15 26.907 41.15 26.7188H40.85C40.85 27.0756 41.1433 27.3636 41.5 27.3636V27.0636ZM41.85 26.7188C41.85 26.907 41.694 27.0636 41.5 27.0636V27.3636C41.8567 27.3636 42.15 27.0756 42.15 26.7188H41.85ZM41.5 26.374C41.694 26.374 41.85 26.5306 41.85 26.7188H42.15C42.15 26.3619 41.8567 26.074 41.5 26.074V26.374ZM41.15 26.7188C41.15 26.5306 41.306 26.374 41.5 26.374V26.074C41.1433 26.074 40.85 26.3619 40.85 26.7188H41.15Z" fill="#222532"/>
<path fill-rule="evenodd" clip-rule="evenodd" d="M12.75 26.7188C12.75 25.6268 13.6465 24.7396 14.75 24.7396C15.8535 24.7396 16.75 25.6287 16.75 26.7188C16.75 27.8108 15.8535 28.698 14.75 28.698C13.6465 28.698 12.75 27.8089 12.75 26.7188ZM14.25 26.7188C14.25 26.9913 14.4746 27.2136 14.75 27.2136C15.0254 27.2136 15.25 26.9913 15.25 26.7188C15.25 26.4463 15.0254 26.224 14.75 26.224C14.4746 26.224 14.25 26.4463 14.25 26.7188Z" fill="white"/>
<path d="M14.75 24.5896C13.5651 24.5896 12.6 25.5425 12.6 26.7188H12.9C12.9 25.7111 13.7279 24.8896 14.75 24.8896V24.5896ZM16.9 26.7188C16.9 25.5445 15.935 24.5896 14.75 24.5896V24.8896C15.772 24.8896 16.6 25.7129 16.6 26.7188H16.9ZM14.75 28.848C15.9349 28.848 16.9 27.8951 16.9 26.7188H16.6C16.6 27.7265 15.7721 28.548 14.75 28.548V28.848ZM12.6 26.7188C12.6 27.8931 13.565 28.848 14.75 28.848V28.548C13.728 28.548 12.9 27.7246 12.9 26.7188H12.6ZM14.75 27.0636C14.556 27.0636 14.4 26.907 14.4 26.7188H14.1C14.1 27.0756 14.3933 27.3636 14.75 27.3636V27.0636ZM15.1 26.7188C15.1 26.907 14.944 27.0636 14.75 27.0636V27.3636C15.1067 27.3636 15.4 27.0756 15.4 26.7188H15.1ZM14.75 26.374C14.944 26.374 15.1 26.5306 15.1 26.7188H15.4C15.4 26.3619 15.1067 26.074 14.75 26.074V26.374ZM14.4 26.7188C14.4 26.5306 14.556 26.374 14.75 26.374V26.074C14.3933 26.074 14.1 26.3619 14.1 26.7188H14.4Z" fill="#222532"/>
<path d="M20.25 23.9974H35.75V25.4818H20.25V23.9974Z" fill="white" stroke="#222532" stroke-width="0.3"/>
</g>
<defs>
<filter id="filter0_d" x="0.0993958" y="0.095459" width="57.8002" height="39.4741" filterUnits="userSpaceOnUse" color-interpolation-filters="sRGB">
<feFlood flood-opacity="0" result="BackgroundImageFix"/>
<feColorMatrix in="SourceAlpha" type="matrix" values="0 0 0 0 0 0 0 0 0 0 0 0 0 0 0 0 0 0 127 0"/>
<feOffset dy="4"/>
<feGaussianBlur stdDeviation="2"/>
<feColorMatrix type="matrix" values="0 0 0 0 0 0 0 0 0 0 0 0 0 0 0 0 0 0 0.25 0"/>
<feBlend mode="normal" in2="BackgroundImageFix" result="effect1_dropShadow"/>
<feBlend mode="normal" in="SourceGraphic" in2="effect1_dropShadow" result="shape"/>
</filter>
</defs>
</svg>
