<svg width="25" height="52" viewBox="0 0 25 52" fill="none" xmlns="http://www.w3.org/2000/svg">
<g filter="url(#filter0_d)">
<mask id="path-1-outside-1" maskUnits="userSpaceOnUse" x="4" y="-0.55542" width="17" height="45" fill="black">
<rect fill="white" x="4" y="-0.55542" width="17" height="45"/>
<path fill-rule="evenodd" clip-rule="evenodd" d="M5 20.5832C5 7.50243 10.4217 0.445137 12.6388 0.44458C14.8563 0.445137 20.2777 7.50198 20.2777 20.5832C20.2777 33.8001 15.5346 42.7602 15.3333 43.1352L15.1371 43.4998H10.1406L9.94444 43.1352C9.74311 42.7601 5 33.8001 5 20.5832ZM11.9447 2.28839V2.28831L11.9448 2.28827L11.9447 2.28839ZM11.9447 2.28839V24.0559H13.3336V2.28831C15.1113 3.87511 18.8891 9.64787 18.8891 20.5834C18.8891 24.2327 18.5054 27.5625 17.9585 30.4705C17.1547 29.3264 15.6773 27.7692 12.9848 26.2309C6.43809 22.4896 6.51764 17.3523 6.52298 17.1354H6.52124C7.20353 8.41873 10.3648 3.70008 11.9447 2.28839ZM6.5248 24.2244C6.46577 23.4015 6.43105 22.5578 6.41195 21.6984C7.40505 23.5438 9.16716 25.6496 12.2953 27.4376C16.7407 29.9786 17.5018 32.492 17.5209 32.5553L17.5211 32.5559C17.1808 34.042 16.8076 35.3909 16.4343 36.5784C15.8492 35.542 14.818 34.2677 12.9968 33.1826C7.51236 29.917 6.64613 25.1791 6.5248 24.2244ZM13.3335 42.1114H14.2936L14.2934 42.1111C14.5694 41.5416 15.1284 40.3229 15.7639 38.5694C15.6284 37.9913 14.9792 35.9792 12.2847 34.375C9.83516 32.9151 8.22404 31.1772 7.15982 29.5488C8.29698 36.2105 10.3595 40.8232 10.9845 42.1114H11.9446V37.2501H13.3335V42.1114Z"/>
</mask>
<path fill-rule="evenodd" clip-rule="evenodd" d="M5 20.5832C5 7.50243 10.4217 0.445137 12.6388 0.44458C14.8563 0.445137 20.2777 7.50198 20.2777 20.5832C20.2777 33.8001 15.5346 42.7602 15.3333 43.1352L15.1371 43.4998H10.1406L9.94444 43.1352C9.74311 42.7601 5 33.8001 5 20.5832ZM11.9447 2.28839V2.28831L11.9448 2.28827L11.9447 2.28839ZM11.9447 2.28839V24.0559H13.3336V2.28831C15.1113 3.87511 18.8891 9.64787 18.8891 20.5834C18.8891 24.2327 18.5054 27.5625 17.9585 30.4705C17.1547 29.3264 15.6773 27.7692 12.9848 26.2309C6.43809 22.4896 6.51764 17.3523 6.52298 17.1354H6.52124C7.20353 8.41873 10.3648 3.70008 11.9447 2.28839ZM6.5248 24.2244C6.46577 23.4015 6.43105 22.5578 6.41195 21.6984C7.40505 23.5438 9.16716 25.6496 12.2953 27.4376C16.7407 29.9786 17.5018 32.492 17.5209 32.5553L17.5211 32.5559C17.1808 34.042 16.8076 35.3909 16.4343 36.5784C15.8492 35.542 14.818 34.2677 12.9968 33.1826C7.51236 29.917 6.64613 25.1791 6.5248 24.2244ZM13.3335 42.1114H14.2936L14.2934 42.1111C14.5694 41.5416 15.1284 40.3229 15.7639 38.5694C15.6284 37.9913 14.9792 35.9792 12.2847 34.375C9.83516 32.9151 8.22404 31.1772 7.15982 29.5488C8.29698 36.2105 10.3595 40.8232 10.9845 42.1114H11.9446V37.2501H13.3335V42.1114Z" fill="white"/>
<path d="M12.6388 0.44458L12.6389 0.14458L12.6388 0.14458L12.6388 0.44458ZM15.3333 43.1352L15.5974 43.2774L15.5976 43.2772L15.3333 43.1352ZM15.1371 43.4998V43.7998H15.3163L15.4013 43.642L15.1371 43.4998ZM10.1406 43.4998L9.87645 43.642L9.96138 43.7998H10.1406V43.4998ZM9.94444 43.1352L9.68011 43.2771L9.68026 43.2774L9.94444 43.1352ZM11.9447 2.28831L11.848 2.00431L11.6447 2.07351V2.28831H11.9447ZM11.9448 2.28827L12.1447 2.51201L11.8481 2.00427L11.9448 2.28827ZM11.9447 24.0559H11.6447V24.3559H11.9447V24.0559ZM13.3336 24.0559V24.3559H13.6336V24.0559H13.3336ZM13.3336 2.28831L13.5333 2.0645L13.0336 1.61842V2.28831H13.3336ZM17.9585 30.4705L17.7131 30.643L18.1219 31.2249L18.2534 30.526L17.9585 30.4705ZM12.9848 26.2309L12.8359 26.4914L12.8359 26.4914L12.9848 26.2309ZM6.52298 17.1354L6.82289 17.1428L6.83045 16.8354H6.52298V17.1354ZM6.52124 17.1354L6.22216 17.112L6.19684 17.4354H6.52124V17.1354ZM6.41195 21.6984L6.67613 21.5562L6.11203 21.7051L6.41195 21.6984ZM6.5248 24.2244L6.22557 24.2459L6.22616 24.2541L6.22719 24.2622L6.5248 24.2244ZM12.2953 27.4376L12.1465 27.6981L12.1465 27.6981L12.2953 27.4376ZM17.5209 32.5553L17.2338 32.6422L17.2339 32.6426L17.5209 32.5553ZM17.5211 32.5559L17.8135 32.6228L17.8314 32.545L17.8081 32.4686L17.5211 32.5559ZM16.4343 36.5784L16.1731 36.7259L16.5131 37.3283L16.7205 36.6684L16.4343 36.5784ZM12.9968 33.1826L13.1504 32.9249L13.1503 32.9249L12.9968 33.1826ZM14.2936 42.1114V42.4114H14.8117L14.5537 41.9621L14.2936 42.1114ZM13.3335 42.1114H13.0335V42.4114H13.3335V42.1114ZM14.2934 42.1111L14.0234 41.9803L13.9543 42.1229L14.0332 42.2605L14.2934 42.1111ZM15.7639 38.5694L16.0459 38.6716L16.0763 38.5878L16.056 38.501L15.7639 38.5694ZM12.2847 34.375L12.1311 34.6327L12.1312 34.6328L12.2847 34.375ZM7.15982 29.5488L7.41095 29.3846L6.8641 29.5992L7.15982 29.5488ZM10.9845 42.1114L10.7146 42.2424L10.7966 42.4114H10.9845V42.1114ZM11.9446 42.1114V42.4114H12.2446V42.1114H11.9446ZM11.9446 37.2501V36.9501H11.6446V37.2501H11.9446ZM13.3335 37.2501H13.6335V36.9501H13.3335V37.2501ZM12.6388 0.14458C12.2862 0.144669 11.9043 0.283053 11.5185 0.517036C11.1292 0.753113 10.715 1.09902 10.2921 1.54573C9.44583 2.43944 8.54392 3.75819 7.71755 5.47894C6.06377 8.92262 4.7 14.0021 4.7 20.5832H5.3C5.3 14.0836 6.64706 9.094 8.25841 5.73869C9.0646 4.05995 9.93383 2.79672 10.7277 1.95826C11.1248 1.53887 11.498 1.23115 11.8296 1.03007C12.1646 0.826908 12.4372 0.744631 12.6389 0.74458L12.6388 0.14458ZM20.5777 20.5832C20.5777 14.0019 19.214 8.9224 17.5603 5.47878C16.7339 3.75805 15.832 2.43933 14.9858 1.54566C14.5628 1.09897 14.1486 0.753075 13.7593 0.51701C13.3734 0.283037 12.9915 0.144669 12.6389 0.14458L12.6388 0.74458C12.8405 0.744631 13.1132 0.82691 13.4482 1.03006C13.7798 1.23113 14.153 1.53883 14.5501 1.9582C15.344 2.79663 16.2132 4.05981 17.0194 5.73852C18.6307 9.09378 19.9777 14.0833 19.9777 20.5832H20.5777ZM15.5976 43.2772C15.8112 42.8793 20.5777 33.8688 20.5777 20.5832H19.9777C19.9777 33.7314 15.2581 42.6412 15.069 42.9933L15.5976 43.2772ZM15.4013 43.642L15.5974 43.2774L15.0691 42.9931L14.8729 43.3577L15.4013 43.642ZM10.1406 43.7998H15.1371V43.1998H10.1406V43.7998ZM9.68026 43.2774L9.87645 43.642L10.4048 43.3577L10.2086 42.9931L9.68026 43.2774ZM4.7 20.5832C4.7 33.8688 9.46654 42.8792 9.68011 43.2771L10.2088 42.9934C10.0197 42.6411 5.3 33.7314 5.3 20.5832H4.7ZM11.6447 2.28831V2.28839H12.2447V2.28831H11.6447ZM11.8481 2.00427L11.848 2.00431L12.0413 2.57232L12.0415 2.57227L11.8481 2.00427ZM12.1445 2.51212L12.1447 2.51201L11.7449 2.06453L11.7448 2.06465L12.1445 2.51212ZM12.2447 24.0559V2.28839H11.6447V24.0559H12.2447ZM13.3336 23.7559H11.9447V24.3559H13.3336V23.7559ZM13.0336 2.28831V24.0559H13.6336V2.28831H13.0336ZM19.1891 20.5834C19.1891 9.58606 15.3906 3.72228 13.5333 2.0645L13.1338 2.51213C14.832 4.02795 18.5891 9.70968 18.5891 20.5834H19.1891ZM18.2534 30.526C18.8032 27.6022 19.1891 24.2537 19.1891 20.5834H18.5891C18.5891 24.2117 18.2076 27.5229 17.6637 30.4151L18.2534 30.526ZM12.8359 26.4914C15.4926 28.0091 16.9361 29.5372 17.7131 30.643L18.204 30.2981C17.3733 29.1157 15.862 27.5292 13.1336 25.9704L12.8359 26.4914ZM6.22307 17.128C6.21616 17.4091 6.15919 22.6758 12.8359 26.4914L13.1336 25.9705C6.71698 22.3035 6.81913 17.2955 6.82289 17.1428L6.22307 17.128ZM6.52124 17.4354H6.52298V16.8354H6.52124V17.4354ZM11.7448 2.06468C10.0932 3.54042 6.90883 8.33934 6.22216 17.112L6.82033 17.1588C7.49824 8.49813 10.6364 3.85975 12.1446 2.51209L11.7448 2.06468ZM6.11203 21.7051C6.1312 22.568 6.16611 23.4169 6.22557 24.2459L6.82403 24.2029C6.76544 23.3861 6.7309 22.5475 6.71188 21.6918L6.11203 21.7051ZM12.4442 27.1772C9.36481 25.417 7.64264 23.3522 6.67613 21.5562L6.14778 21.8406C7.16746 23.7354 8.96951 25.8821 12.1465 27.6981L12.4442 27.1772ZM17.8081 32.4683C17.7676 32.3348 16.9589 29.7578 12.4442 27.1772L12.1465 27.6981C14.3378 28.9507 15.6091 30.1894 16.3319 31.1108C17.0543 32.0316 17.2335 32.6413 17.2338 32.6422L17.8081 32.4683ZM17.8081 32.4686L17.8079 32.468L17.2339 32.6426L17.2341 32.6432L17.8081 32.4686ZM16.7205 36.6684C17.0961 35.4735 17.4714 34.1169 17.8135 32.6228L17.2287 32.4889C16.8902 33.9671 16.519 35.3083 16.1481 36.4885L16.7205 36.6684ZM12.8432 33.4403C14.616 34.4965 15.6115 35.7312 16.1731 36.7259L16.6956 36.431C16.0869 35.3528 15.02 34.0389 13.1504 32.9249L12.8432 33.4403ZM6.22719 24.2622C6.35478 25.2661 7.24891 30.1093 12.8433 33.4404L13.1503 32.9249C7.7758 29.7247 6.93749 25.0921 6.82241 24.1866L6.22719 24.2622ZM14.2936 41.8114H13.3335V42.4114H14.2936V41.8114ZM14.0332 42.2605L14.0334 42.2608L14.5537 41.9621L14.5536 41.9618L14.0332 42.2605ZM15.4818 38.4672C14.8504 40.2097 14.2956 41.4188 14.0234 41.9803L14.5633 42.242C14.8433 41.6645 15.4065 40.4361 16.0459 38.6716L15.4818 38.4672ZM12.1312 34.6328C14.7398 36.1858 15.3502 38.119 15.4718 38.6378L16.056 38.501C15.9067 37.8636 15.2185 35.7725 12.4382 34.1172L12.1312 34.6328ZM6.90869 29.7129C7.99611 31.3769 9.63967 33.1478 12.1311 34.6327L12.4383 34.1173C10.0306 32.6823 8.45198 30.9776 7.41095 29.3846L6.90869 29.7129ZM11.2544 41.9805C10.638 40.7101 8.58668 36.1248 7.45554 29.4983L6.8641 29.5992C8.00727 36.2963 10.081 40.9364 10.7146 42.2424L11.2544 41.9805ZM11.9446 41.8114H10.9845V42.4114H11.9446V41.8114ZM11.6446 37.2501V42.1114H12.2446V37.2501H11.6446ZM13.3335 36.9501H11.9446V37.5501H13.3335V36.9501ZM13.6335 42.1114V37.2501H13.0335V42.1114H13.6335Z" fill="black" mask="url(#path-1-outside-1)"/>
</g>
<defs>
<filter id="filter0_d" x="0.700012" y="0.144531" width="23.8777" height="51.6552" filterUnits="userSpaceOnUse" color-interpolation-filters="sRGB">
<feFlood flood-opacity="0" result="BackgroundImageFix"/>
<feColorMatrix in="SourceAlpha" type="matrix" values="0 0 0 0 0 0 0 0 0 0 0 0 0 0 0 0 0 0 127 0"/>
<feOffset dy="4"/>
<feGaussianBlur stdDeviation="2"/>
<feColorMatrix type="matrix" values="0 0 0 0 0 0 0 0 0 0 0 0 0 0 0 0 0 0 0.25 0"/>
<feBlend mode="normal" in2="BackgroundImageFix" result="effect1_dropShadow"/>
<feBlend mode="normal" in="SourceGraphic" in2="effect1_dropShadow" result="shape"/>
</filter>
</defs>
</svg>
