<svg width="67" height="55" viewBox="0 0 67 55" fill="none" xmlns="http://www.w3.org/2000/svg">
<g filter="url(#filter0_d)">
<path fill-rule="evenodd" clip-rule="evenodd" d="M62.5976 42.8612C62.5882 42.8896 62.5765 42.9181 62.5623 42.9442L62.5628 42.9438C62.5487 42.9723 62.5346 42.9984 62.5064 43.0174C62.4954 43.0348 62.4844 43.0501 62.4734 43.0654C62.4679 43.0731 62.4625 43.0807 62.457 43.0886C62.4382 43.1123 62.417 43.1385 62.3958 43.1622C62.377 43.1812 62.3582 43.2002 62.337 43.2191C62.3135 43.2429 62.2876 43.2642 62.2618 43.2832C62.251 43.2905 62.2389 43.2984 62.2266 43.3063C62.2148 43.3138 62.2027 43.3213 62.1912 43.3283C62.1842 43.3319 62.1773 43.3356 62.1704 43.3393C62.1656 43.342 62.1608 43.3447 62.156 43.3473C62.1402 43.3562 62.1242 43.3652 62.1066 43.3734C62.0971 43.3782 62.0873 43.3825 62.0773 43.3864C62.0665 43.3908 62.0555 43.3948 62.0444 43.3988C62.0354 43.4021 62.0263 43.4055 62.0172 43.409C62.0109 43.4114 62.0049 43.414 61.9989 43.4167C61.9932 43.4192 61.9875 43.4217 61.9815 43.4239C61.975 43.4265 61.9682 43.4287 61.9608 43.4304C61.956 43.4315 61.9519 43.4315 61.9478 43.4315H61.9465C61.9428 43.4316 61.9391 43.4317 61.9349 43.4327C61.862 43.4517 61.7867 43.4636 61.7091 43.4636C61.6033 43.4636 61.5657 43.4802 61.5657 43.4802C61.5224 43.5308 61.4438 43.7839 61.3941 43.9442L61.3893 43.9596C61.2058 44.5529 60.8225 45.787 59.2728 45.787C57.9471 45.787 57.2886 44.8988 56.8068 44.2489L56.8034 44.2444C56.3519 43.6297 56.1802 43.4635 55.8415 43.4635C55.5029 43.4635 55.3335 43.6296 54.8797 44.2419L54.8763 44.2465C54.3945 44.8963 53.7359 45.7846 52.408 45.7846C51.0823 45.7846 50.4238 44.8964 49.942 44.2465L49.9386 44.2419C49.4871 43.6297 49.3154 43.4635 48.9768 43.4635C48.6405 43.4635 48.4688 43.6297 48.0149 44.2444C47.5351 44.8946 46.8743 45.787 45.5456 45.787C44.2176 45.787 43.5591 44.8988 43.0773 44.2489L43.0739 44.2444C42.6223 43.6321 42.4506 43.466 42.112 43.466C41.7733 43.466 41.604 43.6321 41.1501 44.2444C40.6704 44.8946 40.0118 45.787 38.6808 45.787C37.3551 45.787 36.6967 44.8988 36.2149 44.2489L36.2115 44.2444C35.7599 43.6321 35.5882 43.466 35.2496 43.466C34.9133 43.466 34.7416 43.6321 34.2877 44.2468C33.8079 44.897 33.1471 45.7894 31.8184 45.7894C30.4927 45.7894 29.8342 44.9012 29.3524 44.2514L29.349 44.2468C28.8975 43.6345 28.7258 43.4684 28.3872 43.4684C28.0509 43.4684 27.8792 43.6346 27.4253 44.2492C26.9455 44.8995 26.2846 45.7918 24.9559 45.7918C24.5349 45.7918 24.1516 45.6186 23.8812 45.3053C23.225 44.5507 23.3567 43.2644 23.6272 41.2281L23.6318 41.1929C23.7284 40.4561 23.8757 39.3326 23.8271 38.7861C22.0704 39.1324 19.5775 42.6854 18.2841 45.2698C18.1242 45.5926 17.7973 45.792 17.4446 45.792C17.4257 45.792 17.4069 45.792 17.3881 45.7896C17.0142 45.7683 16.6873 45.5238 16.5603 45.1678C16.3439 44.5645 14.4955 39.1941 16.4168 36.2228C17.1365 35.1121 18.3029 34.4737 19.7939 34.3764C21.0897 34.291 21.6824 33.9397 21.7952 33.6621C21.8705 33.477 21.7506 33.1613 21.4872 32.8599C20.7863 32.0554 19.2201 31.4099 17.4375 31.8988C14.9657 32.5732 12.1954 35.917 11.2617 39.3534C10.9348 40.5614 10.582 42.797 11.9178 44.1806C12.28 44.558 12.2706 45.1584 11.899 45.5238C11.5251 45.8893 10.9325 45.8822 10.568 45.5049C9.09344 43.979 8.69599 41.6153 9.4462 38.8528C10.4173 35.2739 13.4888 31.0092 16.9458 30.067C19.5209 29.3645 21.7903 30.3328 22.9004 31.6072C23.6694 32.4877 23.8999 33.5011 23.5353 34.3887C23.2179 35.16 22.3336 36.1141 19.916 36.2731C19.0153 36.3324 18.3874 36.6575 17.9947 37.2627C17.2022 38.4873 17.3856 40.6588 17.7454 42.3913C19.1565 40.1058 21.6329 36.7856 24.1963 36.8663C24.6102 36.8806 24.9841 37.0609 25.2475 37.3766C25.5109 37.6898 25.6402 38.0957 25.6873 38.5988C27.4181 37.443 29.9442 36.2991 34.9298 35.7912C29.5253 13.6964 39.685 1.25821 40.146 0.709996C40.1499 0.706034 40.1538 0.702898 40.1576 0.699899C40.1628 0.695714 40.1677 0.691794 40.1718 0.686264C40.2 0.65541 40.2283 0.629304 40.2588 0.603199C40.2776 0.584213 40.2965 0.5676 40.3176 0.553361C40.3465 0.533919 40.3754 0.517663 40.4056 0.500678L40.4258 0.489282C40.4446 0.477415 40.4634 0.465549 40.4846 0.456056C40.5293 0.43707 40.574 0.422831 40.621 0.410964C40.632 0.409383 40.6429 0.405691 40.6539 0.402L40.654 0.401986C40.6594 0.400145 40.6649 0.398304 40.6704 0.396725C40.7339 0.382485 40.7997 0.375366 40.8679 0.375366L41.0067 0.380112C41.2842 0.380112 41.5452 0.501149 41.7239 0.71474C42.1849 1.26032 52.2949 13.6349 46.9871 35.6228C60.8667 36.4439 62.5647 42.0329 62.6305 42.2773C62.6329 42.2868 62.6329 42.2987 62.6352 42.3082L62.6494 42.4007C62.6541 42.434 62.6588 42.4672 62.6588 42.5004C62.6588 42.5027 62.6589 42.505 62.6591 42.5073L62.6599 42.5147C62.6603 42.5172 62.6606 42.5198 62.6608 42.5223C62.661 42.5245 62.6611 42.5267 62.6611 42.5289C62.6611 42.5352 62.6608 42.5413 62.6604 42.5473C62.6597 42.5574 62.6584 42.5673 62.6571 42.5778L62.6564 42.5835L62.6562 42.5869C62.6539 42.6191 62.6515 42.6534 62.6446 42.6855C62.6435 42.6927 62.6421 42.6999 62.6407 42.7071C62.6394 42.7132 62.6381 42.7193 62.6368 42.7253C62.6334 42.7405 62.6296 42.7558 62.6258 42.771L62.621 42.7875L62.6177 42.7991C62.6117 42.8204 62.6058 42.8413 62.5976 42.8612ZM41.8081 38.5466H44.2398C49.5949 20.8735 44.5573 8.95955 41.8081 4.22964V38.5466ZM39.9268 4.47874V38.5466H37.6338C32.3824 21.2174 37.1564 9.37925 39.9268 4.47874ZM59.599 43.42L59.6039 43.4046L59.6031 43.4047C59.7136 43.0486 59.9017 42.4648 60.365 42.0543C59.3235 40.7252 56.0382 37.996 46.5018 37.5C46.2949 38.2523 46.0715 39.0141 45.8269 39.7878C45.7022 40.1817 45.3401 40.4499 44.9309 40.4499H36.94C36.5308 40.4499 36.1686 40.1817 36.044 39.7878C35.8182 39.0663 35.6112 38.3567 35.416 37.6566C29.3696 38.2309 27.2061 39.7617 25.5528 41.0527C25.5455 41.1083 25.5385 41.1635 25.5314 41.2192C25.5204 41.3062 25.5093 41.3944 25.4964 41.487C25.4047 42.18 25.2635 43.2479 25.2918 43.8175C25.4635 43.7155 25.6375 43.5066 25.9197 43.1222L25.9231 43.1176C26.4049 42.4678 27.0634 41.5795 28.3914 41.5795C29.717 41.5795 30.3755 42.4677 30.8573 43.1176L30.8607 43.1222C31.3123 43.7344 31.4839 43.9006 31.8226 43.9006C32.1612 43.9006 32.3306 43.7345 32.7845 43.1222L32.7878 43.1176C33.2696 42.4678 33.9282 41.5795 35.2561 41.5795C36.5818 41.5795 37.2403 42.4677 37.7221 43.1176L37.7255 43.1222C38.1794 43.7344 38.3511 43.9006 38.6874 43.9006C39.026 43.9006 39.1954 43.7345 39.6492 43.1222C40.129 42.4719 40.7875 41.5795 42.1186 41.5795C43.4442 41.5795 44.1027 42.4677 44.5845 43.1176L44.5879 43.1222C45.0418 43.7369 45.2135 43.903 45.5521 43.903C45.8908 43.903 46.0601 43.7369 46.514 43.1246L46.5174 43.1201C46.9992 42.4702 47.6577 41.582 48.9857 41.582C50.3113 41.582 50.9698 42.4702 51.4516 43.12L51.455 43.1246C51.9066 43.7369 52.0783 43.903 52.4169 43.903C52.7555 43.903 52.9272 43.7368 53.3811 43.1222C53.8609 42.4719 54.5218 41.5795 55.8505 41.5795C57.1785 41.5795 57.8369 42.4677 58.3187 43.1176L58.3221 43.1222C58.776 43.7344 58.9477 43.9006 59.284 43.9006C59.3898 43.9006 59.4275 43.884 59.4275 43.884C59.4707 43.8334 59.5493 43.5804 59.599 43.42Z" fill="white"/>
<path d="M62.5623 42.9442L62.3424 42.8254C62.2856 42.9305 62.3111 43.0613 62.4035 43.1372C62.4958 43.2132 62.629 43.2132 62.7213 43.1372L62.5623 42.9442ZM62.5976 42.8612L62.3665 42.7658C62.3642 42.7713 62.3621 42.777 62.3602 42.7827L62.5976 42.8612ZM62.5628 42.9438L62.7868 43.0548C62.8391 42.9492 62.8106 42.8213 62.7182 42.748C62.6259 42.6747 62.4949 42.6759 62.4039 42.7509L62.5628 42.9438ZM62.5064 43.0174L62.3668 42.81C62.3379 42.8294 62.3134 42.8547 62.2949 42.8841L62.5064 43.0174ZM62.4734 43.0654L62.6765 43.2112L62.6766 43.2111L62.4734 43.0654ZM62.457 43.0886L62.6529 43.2439C62.6562 43.2398 62.6593 43.2355 62.6624 43.2311L62.457 43.0886ZM62.3958 43.1622L62.5736 43.3384L62.5824 43.3286L62.3958 43.1622ZM62.337 43.2191L62.1701 43.033C62.1664 43.0363 62.1629 43.0397 62.1595 43.0432L62.337 43.2191ZM62.2618 43.2832L62.4014 43.4908L62.4097 43.4848L62.2618 43.2832ZM62.2266 43.3063L62.092 43.0956L62.0919 43.0956L62.2266 43.3063ZM62.1912 43.3283L62.3038 43.5515C62.3096 43.5486 62.3152 43.5455 62.3207 43.5422L62.1912 43.3283ZM62.1704 43.3393L62.0499 43.1203L62.0498 43.1203L62.1704 43.3393ZM62.156 43.3473L62.0339 43.1292L62.0339 43.1292L62.156 43.3473ZM62.1066 43.3734L62.0009 43.1467L61.9939 43.1502L62.1066 43.3734ZM62.0773 43.3864L61.9843 43.1544L61.9842 43.1544L62.0773 43.3864ZM62.0444 43.3988L61.9587 43.164L61.9587 43.164L62.0444 43.3988ZM62.0172 43.409L62.1056 43.6429L62.1076 43.6421L62.0172 43.409ZM61.9989 43.4167L62.0993 43.6456L62.0994 43.6456L61.9989 43.4167ZM61.9815 43.4239L62.0712 43.6573L62.0713 43.6573L61.9815 43.4239ZM61.9608 43.4304L61.9061 43.1863L61.8995 43.188L61.9608 43.4304ZM61.9465 43.4315L61.9465 43.1815L61.9458 43.1815L61.9465 43.4315ZM61.9349 43.4327L61.8738 43.1903L61.8719 43.1908L61.9349 43.4327ZM61.5657 43.4802L61.4647 43.2515C61.4305 43.2666 61.4001 43.2892 61.3757 43.3176L61.5657 43.4802ZM61.3941 43.9442L61.6328 44.0184L61.6328 44.0183L61.3941 43.9442ZM61.3893 43.9596L61.1505 43.8854L61.1504 43.8857L61.3893 43.9596ZM56.8068 44.2489L56.6059 44.3977L56.606 44.3978L56.8068 44.2489ZM56.8034 44.2444L56.6019 44.3924L56.6025 44.3931L56.8034 44.2444ZM54.8797 44.2419L55.0805 44.3908L55.0805 44.3908L54.8797 44.2419ZM54.8763 44.2465L54.6755 44.0975L54.6755 44.0976L54.8763 44.2465ZM49.942 44.2465L50.1429 44.0976L50.1428 44.0975L49.942 44.2465ZM49.9386 44.2419L49.7374 44.3903L49.7379 44.3909L49.9386 44.2419ZM48.0149 44.2444L47.8138 44.0958L47.8137 44.0959L48.0149 44.2444ZM43.0773 44.2489L43.2781 44.1L43.2781 44.1L43.0773 44.2489ZM43.0739 44.2444L42.8727 44.3927L42.8731 44.3932L43.0739 44.2444ZM41.1501 44.2444L40.9493 44.0955L40.9489 44.0959L41.1501 44.2444ZM36.2149 44.2489L36.4157 44.1L36.4157 44.1L36.2149 44.2489ZM36.2115 44.2444L36.0103 44.3927L36.0107 44.3933L36.2115 44.2444ZM34.2877 44.2468L34.0866 44.0983L34.0865 44.0984L34.2877 44.2468ZM29.3524 44.2514L29.5533 44.1025L29.5532 44.1024L29.3524 44.2514ZM29.349 44.2468L29.1478 44.3952L29.1482 44.3957L29.349 44.2468ZM27.4253 44.2492L27.2242 44.1007L27.2241 44.1008L27.4253 44.2492ZM23.8812 45.3053L24.0704 45.142L24.0698 45.1413L23.8812 45.3053ZM23.6272 41.2281L23.875 41.261L23.8751 41.2606L23.6272 41.2281ZM23.6318 41.1929L23.3839 41.1604L23.3839 41.1604L23.6318 41.1929ZM23.8271 38.7861L24.0761 38.7639C24.0698 38.6933 24.0338 38.6287 23.9771 38.5861C23.9204 38.5435 23.8483 38.5271 23.7787 38.5408L23.8271 38.7861ZM18.2841 45.2698L18.0605 45.158L18.0601 45.1589L18.2841 45.2698ZM17.3881 45.7896L17.4194 45.5416C17.4137 45.5408 17.408 45.5403 17.4024 45.54L17.3881 45.7896ZM16.5603 45.1678L16.7958 45.0838L16.7956 45.0834L16.5603 45.1678ZM16.4168 36.2228L16.207 36.0869L16.2069 36.0871L16.4168 36.2228ZM19.7939 34.3764L19.8102 34.6259L19.8104 34.6259L19.7939 34.3764ZM21.7952 33.6621L22.0268 33.7562L22.0268 33.7562L21.7952 33.6621ZM21.4872 32.8599L21.2987 33.0241L21.2989 33.0244L21.4872 32.8599ZM17.4375 31.8988L17.5033 32.14L17.5036 32.1399L17.4375 31.8988ZM11.2617 39.3534L11.0205 39.2879L11.0204 39.2881L11.2617 39.3534ZM11.9178 44.1806L12.0982 44.0075L12.0977 44.007L11.9178 44.1806ZM11.899 45.5238L12.0738 45.7026L12.0743 45.7021L11.899 45.5238ZM10.568 45.5049L10.7478 45.3312L10.7478 45.3311L10.568 45.5049ZM9.4462 38.8528L9.68746 38.9183L9.68747 38.9183L9.4462 38.8528ZM16.9458 30.067L17.0116 30.3082L17.0116 30.3082L16.9458 30.067ZM22.9004 31.6072L22.7118 31.7714L22.7121 31.7717L22.9004 31.6072ZM23.5353 34.3887L23.7665 34.4838L23.7666 34.4837L23.5353 34.3887ZM19.916 36.2731L19.8996 36.0236L19.8996 36.0236L19.916 36.2731ZM17.9947 37.2627L17.785 37.1266L17.7848 37.1269L17.9947 37.2627ZM17.7454 42.3913L17.5006 42.4421C17.5215 42.5424 17.6013 42.6198 17.7021 42.6375C17.8029 42.6552 17.9044 42.6097 17.9581 42.5226L17.7454 42.3913ZM24.1963 36.8663L24.2049 36.6165L24.2041 36.6165L24.1963 36.8663ZM25.2475 37.3766L25.0556 37.5368L25.0562 37.5375L25.2475 37.3766ZM25.6873 38.5988L25.4384 38.6221C25.4466 38.7097 25.5003 38.7866 25.5798 38.8245C25.6593 38.8624 25.7529 38.8556 25.8261 38.8067L25.6873 38.5988ZM34.9298 35.7912L34.9551 36.0399C35.0271 36.0326 35.0923 35.9945 35.134 35.9354C35.1758 35.8763 35.1898 35.8021 35.1727 35.7318L34.9298 35.7912ZM40.146 0.709996L39.9684 0.534013C39.9636 0.538855 39.959 0.543892 39.9546 0.54911L40.146 0.709996ZM40.1576 0.699899L40.3136 0.895255L40.3136 0.895253L40.1576 0.699899ZM40.1718 0.686264L39.9873 0.517537C39.9816 0.523792 39.9762 0.530333 39.9712 0.537136L40.1718 0.686264ZM40.2588 0.603199L40.4212 0.793321C40.4264 0.788817 40.4315 0.784096 40.4364 0.77917L40.2588 0.603199ZM40.3176 0.553361L40.1781 0.345929L40.1781 0.345934L40.3176 0.553361ZM40.4056 0.500678L40.5282 0.718564L40.5285 0.718404L40.4056 0.500678ZM40.4258 0.489282L40.5488 0.707268L40.5592 0.700735L40.4258 0.489282ZM40.4846 0.456056L40.3868 0.22592L40.3823 0.227949L40.4846 0.456056ZM40.621 0.410964L40.5853 0.163523C40.5768 0.164759 40.5682 0.16644 40.5598 0.16856L40.621 0.410964ZM40.6539 0.402L40.7336 0.638963L40.7359 0.638177L40.6539 0.402ZM40.654 0.401986L40.5743 0.165015L40.572 0.165809L40.654 0.401986ZM40.6704 0.396725L40.6157 0.152785C40.6108 0.153879 40.6059 0.15512 40.6011 0.156505L40.6704 0.396725ZM40.8679 0.375366L40.8765 0.125366H40.8679V0.375366ZM41.0067 0.380112L40.9981 0.630112H41.0067V0.380112ZM41.7239 0.71474L41.5322 0.87518L41.533 0.876078L41.7239 0.71474ZM46.9871 35.6228L46.7441 35.5642C46.7267 35.6361 46.7421 35.7121 46.7862 35.7716C46.8303 35.8311 46.8984 35.868 46.9723 35.8724L46.9871 35.6228ZM62.6305 42.2773L62.8733 42.2172L62.8719 42.2123L62.6305 42.2773ZM62.6352 42.3082L62.8824 42.2705C62.8812 42.263 62.8797 42.2555 62.8779 42.2481L62.6352 42.3082ZM62.6494 42.4007L62.8969 42.3657L62.8965 42.3631L62.6494 42.4007ZM62.6591 42.5073L62.4101 42.53L62.4107 42.5355L62.6591 42.5073ZM62.6599 42.5147L62.4115 42.5428L62.4118 42.5453L62.6599 42.5147ZM62.6608 42.5223L62.9098 42.5006L62.9098 42.5005L62.6608 42.5223ZM62.6604 42.5473L62.4111 42.5292L62.4111 42.5292L62.6604 42.5473ZM62.6571 42.5778L62.4091 42.5467L62.409 42.5468L62.6571 42.5778ZM62.6564 42.5835L62.408 42.5525L62.407 42.5658L62.6564 42.5835ZM62.6562 42.5869L62.4068 42.5692L62.4068 42.5693L62.6562 42.5869ZM62.6446 42.6855L62.3998 42.6335L62.398 42.6448L62.6446 42.6855ZM62.6407 42.7071L62.8857 42.7565L62.8858 42.7565L62.6407 42.7071ZM62.6368 42.7253L62.3928 42.6706L62.3928 42.6706L62.6368 42.7253ZM62.6258 42.771L62.8659 42.8416L62.8685 42.8311L62.6258 42.771ZM62.621 42.7875L62.3811 42.7169L62.3804 42.7194L62.621 42.7875ZM62.6177 42.7991L62.3772 42.731L62.3771 42.7313L62.6177 42.7991ZM44.2398 38.5466V38.7966C44.35 38.7966 44.4471 38.7245 44.4791 38.6191L44.2398 38.5466ZM41.8081 38.5466H41.5581C41.5581 38.6847 41.6701 38.7966 41.8081 38.7966V38.5466ZM41.8081 4.22964L42.0243 4.10402C41.9675 4.0063 41.8522 3.95885 41.7431 3.98826C41.6339 4.01767 41.5581 4.11663 41.5581 4.22964H41.8081ZM39.9268 38.5466V38.7966C40.0648 38.7966 40.1768 38.6847 40.1768 38.5466H39.9268ZM39.9268 4.47874H40.1768C40.1768 4.36517 40.1002 4.26586 39.9904 4.23697C39.8805 4.20807 39.765 4.25684 39.7091 4.35571L39.9268 4.47874ZM37.6338 38.5466L37.3946 38.6191C37.4265 38.7245 37.5237 38.7966 37.6338 38.7966V38.5466ZM59.6039 43.4046L59.8426 43.4786C59.8679 43.3972 59.8499 43.3086 59.795 43.2435C59.7401 43.1783 59.6558 43.1456 59.5713 43.1567L59.6039 43.4046ZM59.599 43.42L59.8378 43.4942L59.8378 43.4941L59.599 43.42ZM59.6031 43.4047L59.3643 43.3305C59.3391 43.4119 59.357 43.5006 59.4119 43.5657C59.4668 43.6309 59.5511 43.6636 59.6356 43.6525L59.6031 43.4047ZM60.365 42.0543L60.5308 42.2414C60.6298 42.1537 60.6434 42.0041 60.5618 41.9001L60.365 42.0543ZM46.5018 37.5L46.5148 37.2503C46.3976 37.2442 46.2919 37.3205 46.2608 37.4337L46.5018 37.5ZM45.8269 39.7878L46.0652 39.8632L46.0653 39.8631L45.8269 39.7878ZM36.044 39.7878L35.8054 39.8625L35.8056 39.8632L36.044 39.7878ZM35.416 37.6566L35.6569 37.5895C35.6243 37.4729 35.5129 37.3963 35.3924 37.4077L35.416 37.6566ZM25.5528 41.0527L25.3989 40.8557C25.3473 40.896 25.3135 40.955 25.305 41.02L25.5528 41.0527ZM25.5314 41.2192L25.7795 41.2506L25.7795 41.2506L25.5314 41.2192ZM25.4964 41.487L25.2488 41.4525L25.2485 41.4542L25.4964 41.487ZM25.2918 43.8175L25.0421 43.8299C25.0464 43.9175 25.0963 43.9963 25.1736 44.0378C25.2508 44.0793 25.3441 44.0772 25.4195 44.0324L25.2918 43.8175ZM25.9197 43.1222L25.7188 42.9733L25.7182 42.9742L25.9197 43.1222ZM25.9231 43.1176L25.7222 42.9687L25.7222 42.9688L25.9231 43.1176ZM30.8573 43.1176L30.6565 43.2665L30.6565 43.2665L30.8573 43.1176ZM30.8607 43.1222L31.0619 42.9738L31.0615 42.9732L30.8607 43.1222ZM32.7845 43.1222L32.9853 43.2711L32.9853 43.271L32.7845 43.1222ZM32.7878 43.1176L32.587 42.9687L32.587 42.9688L32.7878 43.1176ZM37.7221 43.1176L37.5212 43.2665L37.5213 43.2665L37.7221 43.1176ZM37.7255 43.1222L37.9263 42.9733L37.9263 42.9732L37.7255 43.1222ZM39.6492 43.1222L39.8501 43.2711L39.8504 43.2706L39.6492 43.1222ZM44.5845 43.1176L44.7854 42.9688L44.7853 42.9687L44.5845 43.1176ZM44.5879 43.1222L44.789 42.9737L44.7888 42.9734L44.5879 43.1222ZM46.514 43.1246L46.3132 42.9757L46.3132 42.9757L46.514 43.1246ZM46.5174 43.1201L46.3165 42.9712L46.3165 42.9712L46.5174 43.1201ZM51.4516 43.12L51.2508 43.2689L51.2508 43.269L51.4516 43.12ZM51.455 43.1246L51.6562 42.9762L51.6558 42.9757L51.455 43.1246ZM53.3811 43.1222L53.5822 43.2707L53.5823 43.2706L53.3811 43.1222ZM58.3187 43.1176L58.1179 43.2665L58.1179 43.2665L58.3187 43.1176ZM58.3221 43.1222L58.523 42.9733L58.5229 42.9733L58.3221 43.1222ZM59.4275 43.884L59.5284 44.1127C59.5627 44.0975 59.5931 44.0749 59.6174 44.0465L59.4275 43.884ZM62.7823 43.0631C62.8046 43.0217 62.8219 42.9793 62.835 42.9396L62.3602 42.7827C62.3545 42.8 62.3483 42.8145 62.3424 42.8254L62.7823 43.0631ZM62.4039 42.7509L62.4034 42.7512L62.7213 43.1372L62.7217 43.1368L62.4039 42.7509ZM62.6459 43.2248C62.7339 43.1656 62.7723 43.0842 62.7868 43.0548L62.3388 42.8328C62.3357 42.8391 62.3342 42.8418 62.3334 42.8433C62.3328 42.8445 62.3336 42.8429 62.3358 42.8397C62.3381 42.8364 62.342 42.8315 62.3475 42.8259C62.3531 42.8203 62.3596 42.8148 62.3668 42.81L62.6459 43.2248ZM62.6766 43.2111C62.6871 43.1965 62.7023 43.1754 62.7178 43.1507L62.2949 42.8841C62.2885 42.8942 62.2817 42.9037 62.2703 42.9197L62.6766 43.2111ZM62.6624 43.2311C62.6665 43.2251 62.6709 43.2191 62.6765 43.2112L62.2703 42.9196C62.265 42.927 62.2584 42.9363 62.2516 42.9461L62.6624 43.2311ZM62.5824 43.3286C62.6085 43.2993 62.6332 43.2687 62.6529 43.2439L62.2611 42.9333C62.2431 42.956 62.2255 42.9776 62.2092 42.9958L62.5824 43.3286ZM62.504 43.4052C62.5314 43.3806 62.5552 43.3565 62.5734 43.3382L62.2182 42.9862C62.1988 43.0058 62.185 43.0197 62.1701 43.033L62.504 43.4052ZM62.4097 43.4848C62.4432 43.4601 62.4797 43.4303 62.5146 43.3951L62.1595 43.0432C62.1473 43.0554 62.132 43.0683 62.1139 43.0817L62.4097 43.4848ZM62.3612 43.5169C62.3751 43.5081 62.3888 43.4991 62.4013 43.4907L62.1222 43.0758C62.1132 43.0819 62.1028 43.0887 62.092 43.0956L62.3612 43.5169ZM62.3207 43.5422C62.3342 43.534 62.348 43.5254 62.3613 43.5169L62.0919 43.0956C62.0816 43.1022 62.0713 43.1087 62.0617 43.1144L62.3207 43.5422ZM62.2909 43.5584C62.2964 43.5554 62.3004 43.5532 62.3038 43.5515L62.0786 43.1051C62.0679 43.1105 62.0582 43.1157 62.0499 43.1203L62.2909 43.5584ZM62.2782 43.5655C62.2831 43.5627 62.2871 43.5605 62.291 43.5584L62.0498 43.1203C62.0441 43.1235 62.0386 43.1266 62.0339 43.1292L62.2782 43.5655ZM62.2121 43.6C62.2395 43.5873 62.2634 43.5738 62.2782 43.5654L62.0339 43.1292C62.017 43.1387 62.0089 43.1431 62.001 43.1468L62.2121 43.6ZM62.1704 43.6185C62.1847 43.6127 62.2014 43.6056 62.2192 43.5966L61.9939 43.1502C61.9927 43.1508 61.9899 43.1522 61.9843 43.1544L62.1704 43.6185ZM62.1301 43.6337C62.1406 43.6299 62.1554 43.6245 62.1705 43.6185L61.9842 43.1544C61.9777 43.157 61.9705 43.1597 61.9587 43.164L62.1301 43.6337ZM62.1076 43.6421C62.114 43.6396 62.1207 43.6371 62.1302 43.6337L61.9587 43.164C61.9501 43.1672 61.9386 43.1713 61.9267 43.1759L62.1076 43.6421ZM62.0994 43.6456C62.1027 43.6441 62.1042 43.6435 62.1054 43.6429C62.1065 43.6425 62.1064 43.6425 62.1056 43.6428L61.9288 43.1752C61.9154 43.1802 61.9035 43.1855 61.8984 43.1877L62.0994 43.6456ZM62.0713 43.6573C62.0834 43.6526 62.0943 43.6478 62.0993 43.6456L61.8985 43.1877C61.8955 43.189 61.8939 43.1897 61.8926 43.1903C61.8915 43.1907 61.8913 43.1908 61.8918 43.1906L62.0713 43.6573ZM62.0154 43.6743C62.0379 43.6693 62.0567 43.6629 62.0712 43.6573L61.8919 43.1905C61.8933 43.19 61.8985 43.1881 61.9061 43.1864L62.0154 43.6743ZM61.9478 43.6815C61.9502 43.6815 61.9834 43.6825 62.022 43.6727L61.8995 43.188C61.9287 43.1806 61.9536 43.1815 61.9478 43.1815V43.6815ZM61.9465 43.6815H61.9478V43.1815H61.9465V43.6815ZM61.9959 43.6752C61.9694 43.6818 61.9481 43.6815 61.9473 43.6815L61.9458 43.1815C61.9376 43.1816 61.9088 43.1815 61.8738 43.1903L61.9959 43.6752ZM61.7091 43.7136C61.8123 43.7136 61.9091 43.6978 61.9979 43.6747L61.8719 43.1908C61.8149 43.2056 61.7611 43.2136 61.7091 43.2136V43.7136ZM61.5657 43.4802C61.6666 43.7089 61.6665 43.709 61.6664 43.709C61.6664 43.709 61.6663 43.7091 61.6662 43.7091C61.666 43.7092 61.6659 43.7092 61.6657 43.7093C61.6654 43.7094 61.6651 43.7096 61.6648 43.7097C61.6642 43.71 61.6636 43.7102 61.663 43.7105C61.6619 43.7109 61.6608 43.7114 61.6597 43.7118C61.6575 43.7127 61.6556 43.7135 61.6538 43.7141C61.6501 43.7155 61.6473 43.7164 61.6452 43.717C61.641 43.7183 61.64 43.7183 61.6428 43.7178C61.6486 43.7167 61.6691 43.7136 61.7091 43.7136V43.2136C61.6433 43.2136 61.5921 43.2187 61.5526 43.226C61.5328 43.2296 61.5158 43.2338 61.5012 43.2382C61.494 43.2404 61.4873 43.2426 61.4812 43.2448C61.4782 43.246 61.4753 43.2471 61.4725 43.2482C61.4712 43.2487 61.4698 43.2493 61.4685 43.2498C61.4679 43.2501 61.4672 43.2504 61.4666 43.2507C61.4663 43.2508 61.4659 43.2509 61.4656 43.2511C61.4655 43.2512 61.4653 43.2512 61.4652 43.2513C61.4651 43.2513 61.465 43.2514 61.4649 43.2514C61.4648 43.2514 61.4647 43.2515 61.5657 43.4802ZM61.6328 44.0183C61.658 43.9373 61.6888 43.8382 61.7184 43.7534C61.7332 43.7108 61.7465 43.6754 61.7575 43.6496C61.7631 43.6367 61.7669 43.6288 61.7689 43.625C61.7723 43.6185 61.7681 43.6281 61.7556 43.6428L61.3757 43.3176C61.3367 43.3633 61.3107 43.4228 61.2977 43.4534C61.2802 43.4942 61.2627 43.5416 61.2463 43.5887C61.2133 43.6832 61.1799 43.7908 61.1553 43.8701L61.6328 44.0183ZM61.628 44.0338L61.6328 44.0184L61.1553 43.87L61.1505 43.8854L61.628 44.0338ZM59.2728 46.037C60.1263 46.037 60.6794 45.6919 61.037 45.2539C61.3841 44.8289 61.5373 44.3274 61.6281 44.0334L61.1504 43.8857C61.0579 44.1852 60.9276 44.5973 60.6498 44.9377C60.3824 45.2651 59.9689 45.537 59.2728 45.537V46.037ZM56.606 44.3978C57.0839 45.0424 57.8099 46.037 59.2728 46.037V45.537C58.0843 45.537 57.4934 44.7552 57.0076 44.1L56.606 44.3978ZM56.6025 44.3931L56.6059 44.3977L57.0077 44.1001L57.0043 44.0956L56.6025 44.3931ZM55.8415 43.7135C55.9545 43.7135 56.0248 43.7359 56.1199 43.8153C56.2345 43.911 56.3731 44.0809 56.6019 44.3924L57.0049 44.0963C56.7821 43.7931 56.6092 43.5726 56.4404 43.4316C56.2521 43.2742 56.0672 43.2135 55.8415 43.2135V43.7135ZM55.0805 44.3908C55.3107 44.0802 55.4494 43.9107 55.564 43.815C55.6589 43.7358 55.7287 43.7135 55.8415 43.7135V43.2135C55.6157 43.2135 55.4315 43.2743 55.2436 43.4312C55.0754 43.5716 54.9025 43.7913 54.6788 44.093L55.0805 44.3908ZM55.0771 44.3954L55.0805 44.3908L54.6788 44.093L54.6755 44.0975L55.0771 44.3954ZM52.408 46.0346C53.873 46.0346 54.5991 45.0401 55.0771 44.3953L54.6755 44.0976C54.1898 44.7526 53.5988 45.5346 52.408 45.5346V46.0346ZM49.7412 44.3954C50.2191 45.04 50.9451 46.0346 52.408 46.0346V45.5346C51.2195 45.5346 50.6286 44.7528 50.1429 44.0976L49.7412 44.3954ZM49.7379 44.3909L49.7413 44.3955L50.1428 44.0975L50.1394 44.093L49.7379 44.3909ZM48.9768 43.7135C49.0898 43.7135 49.1602 43.7359 49.2553 43.8152C49.37 43.9107 49.5086 44.0801 49.7374 44.3903L50.1398 44.0935C49.9171 43.7915 49.7442 43.5717 49.5754 43.4311C49.3872 43.2742 49.2024 43.2135 48.9768 43.2135V43.7135ZM48.216 44.3929C48.446 44.0814 48.5853 43.9113 48.7002 43.8153C48.7956 43.7356 48.8655 43.7135 48.9768 43.7135V43.2135C48.7518 43.2135 48.5676 43.2746 48.3796 43.4316C48.2111 43.5724 48.0377 43.7926 47.8138 44.0958L48.216 44.3929ZM45.5456 46.037C47.0117 46.037 47.74 45.038 48.2161 44.3928L47.8137 44.0959C47.3302 44.7512 46.7369 45.537 45.5456 45.537V46.037ZM42.8764 44.3978C43.3544 45.0425 44.0805 46.037 45.5456 46.037V45.537C44.3547 45.537 43.7637 44.7551 43.2781 44.1L42.8764 44.3978ZM42.8731 44.3932L42.8764 44.3978L43.2781 44.1L43.2747 44.0955L42.8731 44.3932ZM42.112 43.716C42.225 43.716 42.2954 43.7383 42.3906 43.8176C42.5052 43.9131 42.6439 44.0825 42.8727 44.3927L43.2751 44.096C43.0523 43.794 42.8794 43.5741 42.7106 43.4335C42.5224 43.2766 42.3377 43.216 42.112 43.216V43.716ZM41.351 44.3932C41.5812 44.0826 41.7199 43.9132 41.8345 43.8174C41.9294 43.7382 41.9992 43.716 42.112 43.716V43.216C41.8862 43.216 41.7019 43.2768 41.514 43.4336C41.3459 43.5741 41.1729 43.7938 40.9493 44.0955L41.351 44.3932ZM38.6808 46.037C40.1493 46.037 40.8753 45.0379 41.3513 44.3928L40.9489 44.0959C40.4654 44.7514 39.8744 45.537 38.6808 45.537V46.037ZM36.014 44.3978C36.4919 45.0424 37.218 46.037 38.6808 46.037V45.537C37.4923 45.537 36.9014 44.7552 36.4157 44.1L36.014 44.3978ZM36.0107 44.3933L36.0141 44.3979L36.4157 44.1L36.4123 44.0954L36.0107 44.3933ZM35.2496 43.716C35.3626 43.716 35.433 43.7383 35.5281 43.8176C35.6428 43.9131 35.7814 44.0825 36.0103 44.3927L36.4127 44.096C36.1899 43.794 36.017 43.5741 35.8482 43.4335C35.66 43.2766 35.4752 43.216 35.2496 43.216V43.716ZM34.4888 44.3953C34.7188 44.0838 34.8582 43.9137 34.973 43.8177C35.0684 43.738 35.1383 43.716 35.2496 43.716V43.216C35.0246 43.216 34.8404 43.277 34.6525 43.434C34.4839 43.5748 34.3105 43.7951 34.0866 44.0983L34.4888 44.3953ZM31.8184 46.0394C33.2845 46.0394 34.0128 45.0404 34.4889 44.3952L34.0865 44.0984C33.603 44.7537 33.0097 45.5394 31.8184 45.5394V46.0394ZM29.1516 44.4003C29.6295 45.0448 30.3555 46.0394 31.8184 46.0394V45.5394C30.6299 45.5394 30.039 44.7576 29.5533 44.1025L29.1516 44.4003ZM29.1482 44.3957L29.1516 44.4003L29.5532 44.1024L29.5498 44.0979L29.1482 44.3957ZM28.3872 43.7184C28.5001 43.7184 28.5706 43.7408 28.6657 43.82C28.7803 43.9156 28.919 44.0849 29.1478 44.3952L29.5502 44.0984C29.3275 43.7964 29.1546 43.5765 28.9858 43.4359C28.7975 43.2791 28.6128 43.2184 28.3872 43.2184V43.7184ZM27.6264 44.3977C27.8564 44.0863 27.9957 43.9161 28.1106 43.8202C28.206 43.7404 28.2759 43.7184 28.3872 43.7184V43.2184C28.1621 43.2184 27.978 43.2794 27.79 43.4364C27.6215 43.5772 27.4481 43.7975 27.2242 44.1007L27.6264 44.3977ZM24.9559 46.0418C26.422 46.0418 27.1504 45.0429 27.6264 44.3976L27.2241 44.1008C26.7406 44.7561 26.1473 45.5418 24.9559 45.5418V46.0418ZM23.6919 45.4687C24.0109 45.8382 24.4639 46.0418 24.9559 46.0418V45.5418C24.606 45.5418 24.2923 45.399 24.0704 45.142L23.6919 45.4687ZM23.3794 41.1952C23.2447 42.209 23.141 43.0596 23.1568 43.753C23.1726 44.4484 23.3089 45.0281 23.6925 45.4694L24.0698 45.1413C23.7974 44.8279 23.6714 44.3871 23.6567 43.7416C23.6419 43.0942 23.7392 42.2835 23.875 41.261L23.3794 41.1952ZM23.3839 41.1604L23.3793 41.1956L23.8751 41.2606L23.8797 41.2254L23.3839 41.1604ZM23.5781 38.8082C23.6001 39.0557 23.578 39.452 23.5351 39.894C23.4927 40.3304 23.4323 40.7914 23.3839 41.1604L23.8797 41.2254C23.9279 40.8576 23.9894 40.3884 24.0327 39.9423C24.0755 39.5017 24.1027 39.063 24.0761 38.7639L23.5781 38.8082ZM18.5077 45.3817C19.1475 44.1032 20.0849 42.5841 21.077 41.3449C21.5731 40.7252 22.0785 40.1812 22.5629 39.773C23.0517 39.361 23.4978 39.1058 23.8754 39.0313L23.7787 38.5408C23.278 38.6395 22.7537 38.9583 22.2407 39.3906C21.7231 39.8268 21.1951 40.3974 20.6867 41.0324C19.6699 42.3024 18.7141 43.852 18.0605 45.158L18.5077 45.3817ZM17.4446 46.042C17.8918 46.042 18.3058 45.7893 18.5081 45.3808L18.0601 45.1589C17.9426 45.396 17.7029 45.542 17.4446 45.542V46.042ZM17.3568 46.0376C17.3938 46.0423 17.4283 46.042 17.4446 46.042V45.542C17.4345 45.542 17.429 45.5419 17.4242 45.5418C17.4199 45.5417 17.4187 45.5415 17.4194 45.5416L17.3568 46.0376ZM16.3248 45.2518C16.4855 45.7021 16.8992 46.0121 17.3739 46.0392L17.4024 45.54C17.1292 45.5244 16.8891 45.3456 16.7958 45.0838L16.3248 45.2518ZM16.2069 36.0871C15.1946 37.6526 15.1887 39.8169 15.4393 41.6178C15.6917 43.4317 16.2143 44.9435 16.325 45.2522L16.7956 45.0834C16.69 44.7888 16.1801 43.3138 15.9345 41.5489C15.6872 39.7709 15.7178 37.7643 16.6268 36.3586L16.2069 36.0871ZM19.7777 34.127C18.2194 34.2287 16.9755 34.9008 16.207 36.0869L16.6267 36.3588C17.2974 35.3235 18.3865 34.7188 19.8102 34.6259L19.7777 34.127ZM21.5636 33.5679C21.5457 33.612 21.448 33.7349 21.1432 33.8601C20.8511 33.9801 20.4074 34.0854 19.7775 34.127L19.8104 34.6259C20.4762 34.582 20.9767 34.469 21.3332 34.3226C21.6768 34.1814 21.9319 33.9898 22.0268 33.7562L21.5636 33.5679ZM21.2989 33.0244C21.4159 33.1582 21.494 33.2877 21.5347 33.394C21.5783 33.5077 21.5667 33.5603 21.5636 33.5679L22.0268 33.7562C22.099 33.5787 22.0651 33.3809 22.0017 33.2152C21.9354 33.0421 21.8219 32.863 21.6754 32.6954L21.2989 33.0244ZM17.5036 32.1399C19.1992 31.6748 20.6646 32.2963 21.2987 33.0241L21.6757 32.6957C20.908 31.8145 19.2409 31.1449 17.3714 31.6577L17.5036 32.1399ZM11.503 39.419C11.9595 37.7386 12.8675 36.075 13.9653 34.7498C15.0671 33.4199 16.337 32.4582 17.5033 32.14L17.3717 31.6576C16.0661 32.0138 14.715 33.0611 13.5803 34.4308C12.4416 35.8053 11.4976 37.5319 11.0205 39.2879L11.503 39.419ZM12.0977 44.007C11.487 43.3744 11.2524 42.5375 11.216 41.6905C11.1797 40.8433 11.3431 40.01 11.5031 39.4187L11.0204 39.2881C10.8535 39.9049 10.6771 40.7934 10.7165 41.7119C10.756 42.6305 11.0129 43.6032 11.738 44.3543L12.0977 44.007ZM12.0743 45.7021C12.5435 45.2407 12.5552 44.4836 12.0982 44.0075L11.7375 44.3537C12.0048 44.6323 11.9978 45.0761 11.7237 45.3456L12.0743 45.7021ZM10.3882 45.6786C10.8493 46.1559 11.601 46.1648 12.0738 45.7026L11.7243 45.3451C11.4492 45.6139 11.0157 45.6085 10.7478 45.3312L10.3882 45.6786ZM9.20494 38.7873C8.44077 41.6011 8.83161 44.0678 10.3882 45.6786L10.7478 45.3311C9.35527 43.8902 8.95122 41.6294 9.68746 38.9183L9.20494 38.7873ZM16.8801 29.8258C15.0819 30.3158 13.4088 31.6603 12.0695 33.3138C10.7279 34.97 9.70025 36.9618 9.20492 38.7873L9.68747 38.9183C10.1632 37.1649 11.1569 35.2348 12.458 33.6285C13.7615 32.0193 15.3527 30.7603 17.0116 30.3082L16.8801 29.8258ZM23.0889 31.443C21.9164 30.0969 19.5485 29.0979 16.88 29.8258L17.0116 30.3082C19.4934 29.6312 21.6642 30.5687 22.7118 31.7714L23.0889 31.443ZM23.7666 34.4837C24.1756 33.4877 23.9038 32.376 23.0887 31.4428L22.7121 31.7717C23.435 32.5994 23.6241 33.5145 23.3041 34.2937L23.7666 34.4837ZM19.9325 36.5225C21.171 36.4411 22.0396 36.1545 22.6465 35.772C23.2562 35.3877 23.5893 34.9143 23.7665 34.4838L23.3042 34.2935C23.1639 34.6344 22.8961 35.0236 22.3799 35.349C21.861 35.6761 21.0787 35.9461 19.8996 36.0236L19.9325 36.5225ZM18.2044 37.3988C18.5438 36.8758 19.0892 36.5781 19.9325 36.5225L19.8996 36.0236C18.9415 36.0867 18.2311 36.4392 17.785 37.1266L18.2044 37.3988ZM17.9902 42.3404C17.8124 41.4843 17.6799 40.5273 17.6879 39.6388C17.696 38.7443 17.8464 37.952 18.2046 37.3985L17.7848 37.1269C17.3505 37.798 17.1963 38.7038 17.1879 39.6343C17.1795 40.5708 17.3186 41.5657 17.5006 42.4421L17.9902 42.3404ZM24.2041 36.6165C22.8152 36.5727 21.4906 37.4465 20.3628 38.5639C19.2264 39.6898 18.2425 41.1104 17.5327 42.2599L17.9581 42.5226C18.6595 41.3867 19.6193 40.0044 20.7147 38.9191C21.8187 37.8252 23.014 37.0792 24.1884 37.1162L24.2041 36.6165ZM25.4395 37.2164C25.1296 36.8451 24.6885 36.6331 24.2049 36.6165L24.1877 37.1162C24.5318 37.128 24.8386 37.2767 25.0556 37.5368L25.4395 37.2164ZM25.9362 38.5755C25.8866 38.0445 25.7472 37.5824 25.4389 37.2157L25.0562 37.5375C25.2746 37.7973 25.3939 38.1468 25.4384 38.6221L25.9362 38.5755ZM34.9045 35.5425C29.8858 36.0538 27.319 37.2086 25.5485 38.3909L25.8261 38.8067C27.5172 37.6775 30.0026 36.5445 34.9551 36.0399L34.9045 35.5425ZM39.9546 0.54911C39.464 1.13258 29.2568 13.6506 34.687 35.8506L35.1727 35.7318C29.7939 13.7422 39.906 1.38385 40.3373 0.870883L39.9546 0.54911ZM40.0016 0.504544C39.9987 0.506828 39.9839 0.518344 39.9684 0.534013L40.3235 0.88598C40.3193 0.8902 40.3159 0.893257 40.3139 0.894914C40.3124 0.896222 40.3113 0.897088 40.3136 0.895255L40.0016 0.504544ZM39.9712 0.537136C39.9809 0.524072 39.9902 0.514768 39.9963 0.509228C40.0012 0.504741 40.0053 0.501534 40.0016 0.504546L40.3136 0.895253C40.3157 0.893509 40.3462 0.870793 40.3725 0.835392L39.9712 0.537136ZM40.0965 0.413078C40.0608 0.443518 40.0246 0.476847 39.9873 0.517537L40.3563 0.85499C40.3755 0.833974 40.3957 0.815091 40.4212 0.793321L40.0965 0.413078ZM40.1781 0.345934C40.1389 0.37229 40.1073 0.400927 40.0813 0.427228L40.4364 0.77917C40.448 0.767499 40.454 0.762911 40.4572 0.760787L40.1781 0.345934ZM40.283 0.282793C40.2541 0.299087 40.2166 0.320044 40.1781 0.345929L40.4572 0.760792C40.4765 0.747794 40.4968 0.736239 40.5282 0.718563L40.283 0.282793ZM40.3029 0.271557L40.2827 0.282953L40.5285 0.718404L40.5487 0.707007L40.3029 0.271557ZM40.3823 0.227949C40.3425 0.245799 40.3092 0.267254 40.2924 0.277829L40.5592 0.700735C40.5692 0.694414 40.5748 0.690919 40.5799 0.687941C40.5845 0.685269 40.5865 0.684342 40.5869 0.684164L40.3823 0.227949ZM40.5598 0.16856C40.503 0.182908 40.4457 0.200966 40.3868 0.225965L40.5824 0.686147C40.6129 0.673175 40.645 0.662753 40.6822 0.653369L40.5598 0.16856ZM40.5742 0.165048C40.5712 0.166044 40.5698 0.166532 40.5685 0.166934C40.5674 0.167292 40.5675 0.167268 40.5682 0.16706C40.5694 0.166723 40.5757 0.164909 40.5853 0.163523L40.6567 0.658406C40.6941 0.653006 40.727 0.641174 40.7336 0.638952L40.5742 0.165048ZM40.572 0.165809L40.5719 0.165822L40.7359 0.638177L40.7359 0.638164L40.572 0.165809ZM40.6011 0.156505C40.5895 0.159857 40.5788 0.163493 40.5743 0.165026L40.7336 0.638946C40.7366 0.637952 40.7381 0.637466 40.7393 0.637066C40.7404 0.63671 40.7404 0.636736 40.7396 0.636946L40.6011 0.156505ZM40.8679 0.125366C40.7822 0.125366 40.698 0.134328 40.6157 0.152785L40.7251 0.640665C40.7698 0.630643 40.8172 0.625366 40.8679 0.625366V0.125366ZM41.0152 0.130259L40.8765 0.125512L40.8594 0.62522L40.9981 0.629966L41.0152 0.130259ZM41.9157 0.554301C41.6892 0.283631 41.3578 0.130112 41.0067 0.130112V0.630112C41.2106 0.630112 41.4013 0.718667 41.5322 0.875178L41.9157 0.554301ZM47.2301 35.6815C52.5633 13.5888 42.4059 1.13455 41.9149 0.553402L41.533 0.876078C41.9639 1.3861 52.0266 13.6811 46.7441 35.5642L47.2301 35.6815ZM62.8719 42.2123C62.8254 42.0394 62.3531 40.5294 60.1332 38.9621C57.9166 37.3971 53.9729 35.7856 47.0019 35.3733L46.9723 35.8724C53.881 36.2811 57.726 37.8746 59.8448 39.3705C61.9603 40.8641 62.3699 42.2708 62.3891 42.3424L62.8719 42.2123ZM62.8779 42.2481C62.8801 42.257 62.8811 42.2636 62.8814 42.2657C62.8816 42.2675 62.8818 42.2688 62.8814 42.2654C62.8812 42.2634 62.8805 42.2569 62.8795 42.2498C62.8784 42.2425 62.8766 42.2309 62.8732 42.2173L62.3879 42.3374C62.3857 42.3286 62.3847 42.322 62.3844 42.3199C62.3841 42.318 62.384 42.3168 62.3844 42.3201C62.3846 42.3221 62.3853 42.3287 62.3863 42.3357C62.3873 42.343 62.3892 42.3546 62.3926 42.3682L62.8779 42.2481ZM62.8965 42.3631L62.8824 42.2705L62.3881 42.3459L62.4022 42.4384L62.8965 42.3631ZM62.9088 42.5004C62.9088 42.4466 62.9012 42.3959 62.8969 42.3657L62.4018 42.4358C62.407 42.4721 62.4088 42.4878 62.4088 42.5004H62.9088ZM62.9081 42.4847C62.9083 42.4874 62.9088 42.493 62.9088 42.5004H62.4088C62.4088 42.5125 62.4095 42.5227 62.4101 42.53L62.9081 42.4847ZM62.9083 42.4865L62.9075 42.4792L62.4107 42.5355L62.4115 42.5428L62.9083 42.4865ZM62.9098 42.5005C62.9092 42.4928 62.9083 42.4858 62.908 42.484L62.4118 42.5453C62.4122 42.5486 62.412 42.5468 62.4118 42.5442L62.9098 42.5005ZM62.9111 42.5289C62.9111 42.5173 62.9104 42.5075 62.9098 42.5006L62.4117 42.5441C62.4115 42.5416 62.4111 42.5361 62.4111 42.5289H62.9111ZM62.9098 42.5654C62.9106 42.5544 62.9111 42.5422 62.9111 42.5289H62.4111L62.4111 42.5292L62.9098 42.5654ZM62.9052 42.6089C62.9064 42.5995 62.9085 42.5831 62.9098 42.5654L62.4111 42.5292C62.4109 42.5317 62.4105 42.5351 62.4091 42.5467L62.9052 42.6089ZM62.9045 42.6144L62.9052 42.6088L62.409 42.5468L62.4083 42.5525L62.9045 42.6144ZM62.9055 42.6045L62.9058 42.6011L62.407 42.5658L62.4068 42.5692L62.9055 42.6045ZM62.8892 42.7375C62.9002 42.6854 62.9035 42.6335 62.9055 42.6045L62.4068 42.5693C62.4043 42.6048 62.4027 42.6214 62.4001 42.6336L62.8892 42.7375ZM62.8858 42.7565C62.8877 42.7469 62.8896 42.7368 62.8913 42.7263L62.398 42.6448C62.3974 42.6486 62.3966 42.6529 62.3956 42.6578L62.8858 42.7565ZM62.8807 42.78C62.8824 42.7725 62.8841 42.7647 62.8857 42.7565L62.3956 42.6578C62.3948 42.6618 62.3939 42.666 62.3928 42.6706L62.8807 42.78ZM62.8685 42.8311C62.8722 42.8163 62.8766 42.7984 62.8807 42.78L62.3928 42.6706C62.3901 42.6827 62.3871 42.6952 62.3832 42.7108L62.8685 42.8311ZM62.8608 42.858L62.8657 42.8415L62.386 42.7005L62.3811 42.7169L62.8608 42.858ZM62.8582 42.8672L62.8615 42.8556L62.3804 42.7194L62.3772 42.731L62.8582 42.8672ZM62.8287 42.9566C62.8434 42.9209 62.8531 42.8856 62.8583 42.8668L62.3771 42.7313C62.3703 42.7552 62.3682 42.7618 62.3665 42.7658L62.8287 42.9566ZM44.2398 38.2966H41.8081V38.7966H44.2398V38.2966ZM41.592 4.35527C44.3147 9.03974 49.3311 20.8819 44.0006 38.4741L44.4791 38.6191C49.8587 20.8651 44.7998 8.87936 42.0243 4.10402L41.592 4.35527ZM42.0581 38.5466V4.22964H41.5581V38.5466H42.0581ZM40.1768 38.5466V4.47874H39.6768V38.5466H40.1768ZM37.6338 38.7966H39.9268V38.2966H37.6338V38.7966ZM39.7091 4.35571C36.9131 9.30159 32.1191 21.2105 37.3946 38.6191L37.8731 38.4741C32.6457 21.2243 37.3997 9.45691 40.1444 4.60177L39.7091 4.35571ZM59.3651 43.3305L59.3603 43.346L59.8378 43.4941L59.8426 43.4786L59.3651 43.3305ZM59.6356 43.6525L59.6364 43.6524L59.5713 43.1567L59.5705 43.1568L59.6356 43.6525ZM60.1992 41.8672C59.6779 42.3292 59.474 42.9775 59.3643 43.3305L59.8419 43.4788C59.9533 43.1198 60.1256 42.6005 60.5308 42.2414L60.1992 41.8672ZM46.4889 37.7497C55.9837 38.2435 59.1873 40.9567 60.1683 42.2085L60.5618 41.9001C59.4597 40.4938 56.0927 37.7485 46.5148 37.2503L46.4889 37.7497ZM46.0653 39.8631C46.3109 39.0862 46.5352 38.3214 46.7429 37.5663L46.2608 37.4337C46.0546 38.1833 45.8321 38.942 45.5885 39.7124L46.0653 39.8631ZM44.9309 40.6999C45.451 40.6999 45.9082 40.3593 46.0652 39.8632L45.5885 39.7123C45.4962 40.0042 45.2292 40.1999 44.9309 40.1999V40.6999ZM36.94 40.6999H44.9309V40.1999H36.94V40.6999ZM35.8056 39.8632C35.9626 40.3593 36.4199 40.6999 36.94 40.6999V40.1999C36.6416 40.1999 36.3746 40.0042 36.2823 39.7124L35.8056 39.8632ZM35.1752 37.7238C35.371 38.4258 35.5787 39.138 35.8054 39.8625L36.2826 39.7131C36.0577 38.9947 35.8515 38.2876 35.6569 37.5895L35.1752 37.7238ZM25.7067 41.2498C26.5263 40.6097 27.4595 39.9204 28.9318 39.3172C30.4069 38.713 32.4342 38.191 35.4397 37.9055L35.3924 37.4077C32.3515 37.6966 30.2738 38.2271 28.7422 38.8546C27.2078 39.4831 26.2326 40.2047 25.3989 40.8557L25.7067 41.2498ZM25.7795 41.2506C25.7865 41.1948 25.7934 41.1402 25.8007 41.0855L25.305 41.02C25.2975 41.0763 25.2904 41.1322 25.2834 41.1878L25.7795 41.2506ZM25.744 41.5215C25.7571 41.4271 25.7685 41.3374 25.7795 41.2506L25.2834 41.1878C25.2724 41.275 25.2614 41.3617 25.2488 41.4525L25.744 41.5215ZM25.5415 43.8051C25.5147 43.2641 25.6509 42.2245 25.7442 41.5198L25.2485 41.4542C25.1584 42.1355 25.0124 43.2318 25.0421 43.8299L25.5415 43.8051ZM25.7182 42.9742C25.4282 43.3692 25.2837 43.5315 25.1641 43.6026L25.4195 44.0324C25.6432 43.8995 25.8467 43.6441 26.1212 43.2701L25.7182 42.9742ZM25.7222 42.9688L25.7188 42.9733L26.1206 43.271L26.1239 43.2665L25.7222 42.9688ZM28.3914 41.3295C26.9263 41.3295 26.2002 42.324 25.7222 42.9687L26.1239 43.2665C26.6095 42.6115 27.2005 41.8295 28.3914 41.8295V41.3295ZM31.0581 42.9687C30.5803 42.3241 29.8542 41.3295 28.3914 41.3295V41.8295C29.5798 41.8295 30.1707 42.6113 30.6565 43.2665L31.0581 42.9687ZM31.0615 42.9732L31.0581 42.9687L30.6565 43.2665L30.6599 43.2711L31.0615 42.9732ZM31.8226 43.6506C31.7096 43.6506 31.6392 43.6282 31.544 43.5489C31.4294 43.4534 31.2907 43.284 31.0619 42.9738L30.6595 43.2706C30.8822 43.5726 31.0552 43.7924 31.224 43.933C31.4122 44.0899 31.5969 44.1506 31.8226 44.1506V43.6506ZM32.5836 42.9733C32.3534 43.2839 32.2147 43.4534 32.1001 43.5491C32.0052 43.6283 31.9354 43.6506 31.8226 43.6506V44.1506C32.0484 44.1506 32.2326 44.0898 32.4205 43.9329C32.5887 43.7925 32.7617 43.5728 32.9853 43.2711L32.5836 42.9733ZM32.587 42.9688L32.5836 42.9733L32.9853 43.271L32.9887 43.2665L32.587 42.9688ZM35.2561 41.3295C33.7911 41.3295 33.065 42.324 32.587 42.9687L32.9887 43.2665C33.4743 42.6115 34.0653 41.8295 35.2561 41.8295V41.3295ZM37.9229 42.9687C37.445 42.3241 36.719 41.3295 35.2561 41.3295V41.8295C36.4446 41.8295 37.0355 42.6113 37.5212 43.2665L37.9229 42.9687ZM37.9263 42.9732L37.9229 42.9687L37.5213 43.2665L37.5247 43.2711L37.9263 42.9732ZM38.6874 43.6506C38.576 43.6506 38.5061 43.6285 38.4106 43.5489C38.2957 43.4532 38.1563 43.2836 37.9263 42.9733L37.5246 43.2711C37.7485 43.5731 37.922 43.7926 38.0905 43.933C38.2784 44.0896 38.4624 44.1506 38.6874 44.1506V43.6506ZM39.4484 42.9733C39.2182 43.2839 39.0795 43.4534 38.9649 43.5491C38.87 43.6283 38.8002 43.6506 38.6874 43.6506V44.1506C38.9132 44.1506 39.0974 44.0898 39.2853 43.9329C39.4535 43.7925 39.6264 43.5728 39.8501 43.2711L39.4484 42.9733ZM42.1186 41.3295C40.65 41.3295 39.924 42.3287 39.4481 42.9738L39.8504 43.2706C40.334 42.6152 40.925 41.8295 42.1186 41.8295V41.3295ZM44.7853 42.9687C44.3075 42.3241 43.5814 41.3295 42.1186 41.3295V41.8295C43.307 41.8295 43.8979 42.6113 44.3837 43.2665L44.7853 42.9687ZM44.7888 42.9734L44.7854 42.9688L44.3836 43.2664L44.387 43.271L44.7888 42.9734ZM45.5521 43.653C45.4392 43.653 45.3688 43.6307 45.2733 43.5511C45.1583 43.4552 45.019 43.2852 44.789 42.9737L44.3868 43.2707C44.6107 43.5739 44.7842 43.7943 44.9532 43.9351C45.1416 44.0923 45.3264 44.153 45.5521 44.153V43.653ZM46.3132 42.9757C46.0829 43.2863 45.9442 43.4558 45.8296 43.5515C45.7347 43.6307 45.6649 43.653 45.5521 43.653V44.153C45.778 44.153 45.9622 44.0922 46.1501 43.9353C46.3183 43.7949 46.4912 43.5752 46.7148 43.2735L46.3132 42.9757ZM46.3165 42.9712L46.3132 42.9757L46.7148 43.2735L46.7182 43.269L46.3165 42.9712ZM48.9857 41.332C47.5206 41.332 46.7945 42.3265 46.3165 42.9712L46.7182 43.269C47.2038 42.6139 47.7948 41.832 48.9857 41.832V41.332ZM51.6524 42.9711C51.1746 42.3266 50.4485 41.332 48.9857 41.332V41.832C50.1742 41.832 50.7651 42.6138 51.2508 43.2689L51.6524 42.9711ZM51.6558 42.9757L51.6524 42.9711L51.2508 43.269L51.2542 43.2735L51.6558 42.9757ZM52.4169 43.653C52.3039 43.653 52.2335 43.6306 52.1383 43.5513C52.0237 43.4558 51.885 43.2865 51.6562 42.9762L51.2538 43.273C51.4766 43.575 51.6495 43.7948 51.8183 43.9355C52.0065 44.0923 52.1912 44.153 52.4169 44.153V43.653ZM53.18 42.9737C52.95 43.2852 52.8107 43.4552 52.6957 43.5511C52.6002 43.6307 52.5298 43.653 52.4169 43.653V44.153C52.6427 44.153 52.8274 44.0922 53.0159 43.9351C53.1849 43.7942 53.3584 43.5739 53.5822 43.2707L53.18 42.9737ZM55.8505 41.3295C54.3844 41.3295 53.656 42.3285 53.18 42.9738L53.5823 43.2706C54.0658 42.6153 54.6592 41.8295 55.8505 41.8295V41.3295ZM58.5196 42.9687C58.0416 42.324 57.3156 41.3295 55.8505 41.3295V41.8295C57.0413 41.8295 57.6323 42.6115 58.1179 43.2665L58.5196 42.9687ZM58.5229 42.9733L58.5195 42.9687L58.1179 43.2665L58.1213 43.2711L58.5229 42.9733ZM59.284 43.6506C59.1727 43.6506 59.1027 43.6285 59.0072 43.5489C58.8923 43.4532 58.753 43.2836 58.523 42.9733L58.1213 43.2711C58.3452 43.5731 58.5186 43.7926 58.6871 43.933C58.875 44.0896 59.0591 44.1506 59.284 44.1506V43.6506ZM59.4275 43.884C59.3265 43.6553 59.3266 43.6552 59.3267 43.6552C59.3268 43.6551 59.3269 43.6551 59.3269 43.6551C59.3271 43.655 59.3273 43.6549 59.3274 43.6549C59.3277 43.6547 59.328 43.6546 59.3283 43.6545C59.3289 43.6542 59.3295 43.654 59.3301 43.6537C59.3312 43.6532 59.3324 43.6528 59.3334 43.6523C59.3356 43.6515 59.3376 43.6507 59.3394 43.65C59.343 43.6487 59.3459 43.6478 59.348 43.6471C59.3521 43.6459 59.3531 43.6459 59.3503 43.6464C59.3446 43.6474 59.324 43.6506 59.284 43.6506V44.1506C59.3499 44.1506 59.401 44.1454 59.4405 44.1382C59.4604 44.1345 59.4774 44.1303 59.4919 44.126C59.4992 44.1238 59.5058 44.1216 59.5119 44.1193C59.515 44.1182 59.5179 44.1171 59.5206 44.116C59.522 44.1154 59.5233 44.1149 59.5246 44.1143C59.5253 44.114 59.5259 44.1138 59.5266 44.1135C59.5269 44.1133 59.5272 44.1132 59.5275 44.1131C59.5277 44.113 59.5278 44.1129 59.528 44.1129C59.5281 44.1128 59.5282 44.1128 59.5282 44.1128C59.5283 44.1127 59.5284 44.1127 59.4275 43.884ZM59.3603 43.3459C59.3351 43.427 59.3043 43.526 59.2748 43.6108C59.2599 43.6534 59.2466 43.6887 59.2356 43.7146C59.2301 43.7275 59.2263 43.7354 59.2242 43.7392C59.2208 43.7456 59.225 43.736 59.2375 43.7214L59.6174 44.0465C59.6565 44.0009 59.6824 43.9413 59.6955 43.9108C59.7129 43.87 59.7304 43.8226 59.7469 43.7755C59.7798 43.6811 59.8132 43.5735 59.8378 43.4942L59.3603 43.3459Z" fill="#222532"/>
<path d="M10.2883 30.1358C10.1684 29.991 9.0772 28.7308 7.68029 28.7308C7.03358 28.7308 6.10932 28.999 5.38266 30.2735L4.57129 31.6974H11.5911L10.2883 30.1358Z" fill="white" stroke="#222532" stroke-width="0.5" stroke-linejoin="round"/>
<path fill-rule="evenodd" clip-rule="evenodd" d="M8.46384 33.5745L9.43042 33.6766L9.30817 34.6496C8.95302 37.2791 6.20622 40.0535 6.08864 40.1721L4.81634 41.4442L4.50121 39.6643C4.12728 37.5711 4.39302 35.962 5.28904 34.8822C6.54249 33.3704 8.46384 33.5745 8.46384 33.5745ZM6.73533 36.0997C6.56835 36.299 6.44371 36.553 6.3567 36.852L6.35671 36.852C6.5566 36.5506 6.74944 36.235 6.91406 35.9169C6.85291 35.9715 6.79177 36.0309 6.73533 36.0997Z" fill="white"/>
<path d="M9.43042 33.6766L9.67847 33.7077C9.68684 33.6411 9.66805 33.5739 9.62633 33.5213C9.5846 33.4686 9.52346 33.435 9.45667 33.428L9.43042 33.6766ZM8.46384 33.5745L8.43743 33.8231L8.43759 33.8232L8.46384 33.5745ZM9.30817 34.6496L9.55593 34.6831L9.55622 34.6808L9.30817 34.6496ZM6.08864 40.1721L6.2654 40.3489L6.26622 40.3481L6.08864 40.1721ZM4.81634 41.4442L4.57017 41.4878C4.58642 41.5796 4.65235 41.6547 4.74124 41.6827C4.83013 41.7107 4.9272 41.6869 4.99311 41.621L4.81634 41.4442ZM4.50121 39.6643L4.74738 39.6207L4.74731 39.6203L4.50121 39.6643ZM5.28904 34.8822L5.48143 35.0418L5.48149 35.0417L5.28904 34.8822ZM6.3567 36.852L6.11666 36.7822C6.09925 36.842 6.1048 36.9061 6.13222 36.9621L6.3567 36.852ZM6.73533 36.0997L6.927 36.2602L6.92864 36.2582L6.73533 36.0997ZM6.35671 36.852L6.13223 36.9621C6.17165 37.0425 6.2511 37.0957 6.34049 37.1015C6.42988 37.1073 6.51554 37.0649 6.56505 36.9902L6.35671 36.852ZM6.91406 35.9169L7.13608 36.0319C7.19152 35.9248 7.1626 35.7934 7.06732 35.7194C6.97204 35.6455 6.83756 35.6501 6.74759 35.7304L6.91406 35.9169ZM9.45667 33.428L8.49009 33.3259L8.43759 33.8232L9.40417 33.9252L9.45667 33.428ZM9.55622 34.6808L9.67847 33.7077L9.18237 33.6454L9.06012 34.6184L9.55622 34.6808ZM6.26622 40.3481C6.32915 40.2846 7.05553 39.5508 7.81229 38.4984C8.56433 37.4526 9.36989 36.0604 9.55592 34.6831L9.06042 34.6161C8.8913 35.8683 8.14589 37.1781 7.40635 38.2065C6.67152 39.2283 5.96571 39.941 5.91105 39.9961L6.26622 40.3481ZM4.99311 41.621L6.2654 40.3489L5.91187 39.9953L4.63958 41.2674L4.99311 41.621ZM4.25504 39.7078L4.57017 41.4878L5.06251 41.4006L4.74738 39.6207L4.25504 39.7078ZM5.09665 34.7225C4.13372 35.883 3.87496 37.5802 4.25511 39.7082L4.74731 39.6203C4.37961 37.5619 4.65232 36.041 5.48143 35.0418L5.09665 34.7225ZM8.46384 33.5745C8.49025 33.3259 8.49014 33.3259 8.49002 33.3259C8.48997 33.3259 8.48985 33.3259 8.48975 33.3259C8.48955 33.3259 8.48933 33.3258 8.48907 33.3258C8.48856 33.3258 8.48794 33.3257 8.48719 33.3256C8.4857 33.3255 8.48375 33.3253 8.48134 33.3251C8.47651 33.3246 8.46987 33.324 8.46147 33.3234C8.44469 33.3221 8.42091 33.3204 8.39077 33.319C8.33052 33.3161 8.24469 33.3139 8.13843 33.3163C7.92623 33.3211 7.63065 33.3441 7.29358 33.4171C6.61978 33.563 5.76919 33.9114 5.09659 34.7226L5.48149 35.0417C6.06234 34.3412 6.79915 34.0358 7.39939 33.9058C7.69934 33.8408 7.96244 33.8204 8.14966 33.8162C8.24311 33.8141 8.31718 33.8161 8.3669 33.8184C8.39175 33.8196 8.41047 33.8209 8.42244 33.8218C8.42843 33.8223 8.43272 33.8227 8.43525 33.8229C8.43651 33.823 8.43733 33.8231 8.4377 33.8232C8.43788 33.8232 8.43795 33.8232 8.43791 33.8232C8.43789 33.8232 8.43784 33.8232 8.43776 33.8232C8.43772 33.8232 8.43764 33.8232 8.43762 33.8232C8.43753 33.8231 8.43743 33.8231 8.46384 33.5745ZM6.59674 36.9219C6.67676 36.6469 6.78766 36.4266 6.92699 36.2602L6.54367 35.9392C6.34904 36.1715 6.21067 36.4591 6.11666 36.7822L6.59674 36.9219ZM6.58119 36.742L6.58118 36.742L6.13222 36.9621L6.13223 36.9621L6.58119 36.742ZM6.69205 35.802C6.53278 36.1097 6.34501 36.4173 6.14836 36.7138L6.56505 36.9902C6.7682 36.6839 6.9661 36.3602 7.13608 36.0319L6.69205 35.802ZM6.92864 36.2582C6.97377 36.2032 7.02453 36.1534 7.08054 36.1034L6.74759 35.7304C6.68129 35.7896 6.60977 35.8585 6.54202 35.9412L6.92864 36.2582Z" fill="#222532"/>
<path fill-rule="evenodd" clip-rule="evenodd" d="M15.7066 28.2913C15.7066 29.2833 14.9047 30.0902 13.9217 30.0902C12.9386 30.0902 12.1391 29.2833 12.1391 28.2913C12.1391 27.2993 12.9386 26.4924 13.9217 26.4924C14.907 26.4924 15.7066 27.2993 15.7066 28.2913ZM14.0204 28.2913C14.0204 28.2367 13.9757 28.1916 13.9217 28.1916C13.8676 28.1916 13.8252 28.2367 13.8252 28.2913C13.8252 28.4005 14.0204 28.4005 14.0204 28.2913Z" fill="white"/>
<path d="M13.9217 30.3402C15.0445 30.3402 15.9566 29.4197 15.9566 28.2913H15.4566C15.4566 29.147 14.7649 29.8402 13.9217 29.8402V30.3402ZM11.8891 28.2913C11.8891 29.4193 12.7984 30.3402 13.9217 30.3402V29.8402C13.0789 29.8402 12.3891 29.1474 12.3891 28.2913H11.8891ZM13.9217 26.2424C12.7984 26.2424 11.8891 27.1634 11.8891 28.2913H12.3891C12.3891 27.4352 13.0789 26.7424 13.9217 26.7424V26.2424ZM15.9566 28.2913C15.9566 27.1632 15.047 26.2424 13.9217 26.2424V26.7424C14.767 26.7424 15.4566 27.4355 15.4566 28.2913H15.9566ZM13.9217 28.4416C13.8355 28.4416 13.7704 28.3726 13.7704 28.2913H14.2704C14.2704 28.1008 14.116 27.9416 13.9217 27.9416V28.4416ZM14.0752 28.2913C14.0752 28.3647 14.0155 28.4416 13.9217 28.4416V27.9416C13.7196 27.9416 13.5752 28.1087 13.5752 28.2913H14.0752ZM13.7704 28.2913C13.7704 28.2339 13.8003 28.1823 13.8405 28.1523C13.8735 28.1276 13.9046 28.1232 13.9228 28.1232C13.9411 28.1232 13.9721 28.1276 14.0052 28.1523C14.0454 28.1823 14.0752 28.2339 14.0752 28.2913H13.5752C13.5752 28.4033 13.6295 28.4958 13.7063 28.5531C13.7759 28.6051 13.8558 28.6232 13.9228 28.6232C13.9899 28.6232 14.0697 28.6051 14.1394 28.5531C14.2162 28.4958 14.2704 28.4033 14.2704 28.2913H13.7704Z" fill="#222532"/>
</g>
<defs>
<filter id="filter0_d" x="0.0871582" y="0.125366" width="66.824" height="53.9176" filterUnits="userSpaceOnUse" color-interpolation-filters="sRGB">
<feFlood flood-opacity="0" result="BackgroundImageFix"/>
<feColorMatrix in="SourceAlpha" type="matrix" values="0 0 0 0 0 0 0 0 0 0 0 0 0 0 0 0 0 0 127 0"/>
<feOffset dy="4"/>
<feGaussianBlur stdDeviation="2"/>
<feColorMatrix type="matrix" values="0 0 0 0 0 0 0 0 0 0 0 0 0 0 0 0 0 0 0.25 0"/>
<feBlend mode="normal" in2="BackgroundImageFix" result="effect1_dropShadow"/>
<feBlend mode="normal" in="SourceGraphic" in2="effect1_dropShadow" result="shape"/>
</filter>
</defs>
</svg>
